<?xml version="1.0" encoding="UTF-8" standalone="no"?>
<!-- Created with Inkscape (http://www.inkscape.org/) -->

<svg
   width="130.74344mm"
   height="141.83778mm"
   viewBox="0 0 130.74344 141.83778"
   version="1.1"
   id="svg1"
   inkscape:export-filename="magicglobe3.svg"
   inkscape:export-xdpi="96"
   inkscape:export-ydpi="96"
   xmlns:inkscape="http://www.inkscape.org/namespaces/inkscape"
   xmlns:sodipodi="http://sodipodi.sourceforge.net/DTD/sodipodi-0.dtd"
   xmlns="http://www.w3.org/2000/svg"
   xmlns:svg="http://www.w3.org/2000/svg">
  <sodipodi:namedview
     id="namedview1"
     pagecolor="#ffffff"
     bordercolor="#000000"
     borderopacity="0.25"
     inkscape:showpageshadow="2"
     inkscape:pageopacity="0.0"
     inkscape:pagecheckerboard="0"
     inkscape:deskcolor="#d1d1d1"
     inkscape:document-units="mm" />
  <defs
     id="defs1" />
  <g
     inkscape:label="Layer 1"
     inkscape:groupmode="layer"
     id="layer1"
     transform="translate(-50.108323,-85.399442)">
    <g
       id="g3"
       transform="matrix(0.60109826,0,0,0.60109826,56.629143,67.1096)">
      <path
         fill="#1E4B74"
         opacity="1"
         stroke="none"
         d="m 142.92,44.498183 c 0.0779,0.129235 0.15587,0.258471 0.14631,0.531164 -0.18376,1.712529 -0.28002,3.281598 -0.37629,4.850667 0,0 -0.0129,-0.04547 -0.0778,-0.01905 -0.11969,0.188497 -0.17448,0.350578 -0.22929,0.512657 0,0 -0.007,-0.02756 -0.0661,-7.94e-4 -0.10386,0.117456 -0.14884,0.208132 -0.19384,0.298812 0,0 -0.005,-0.05337 -0.0572,-0.02735 -0.0977,0.121396 -0.14284,0.216765 -0.18798,0.312137 0,5e-6 -0.003,-0.05633 -0.069,-0.04108 -0.18951,0.205169 -0.31302,0.395092 -0.43652,0.585007 0,0 -0.0265,-0.04903 -0.0821,-0.03908 -0.1055,0.103907 -0.15545,0.197858 -0.20538,0.291811 0,0 -0.01,-0.05668 -0.0643,-0.03956 -0.1046,0.110918 -0.15448,0.204705 -0.20436,0.298489 0,0 -0.0123,-0.05322 -0.066,-0.0374 -0.10773,0.1055 -0.16172,0.19518 -0.21572,0.284853 0,0 -0.0104,-0.05138 -0.0608,-0.03048 -0.10536,0.107209 -0.16033,0.193516 -0.2153,0.279823 -2.6246,1.821651 -5.27545,3.606861 -7.86728,5.47402 -3.38396,2.4378 -6.77829,4.86759 -10.06021,7.438612 -2.5709,2.014025 -2.54581,2.564588 -0.56975,5.205175 0.23642,0.315912 0.46489,0.637775 0.67652,1.075851 0.0464,0.155125 0.11331,0.191275 0.18021,0.227428 0,0 0.005,0.03248 -0.0304,0.116491 0.17426,0.263033 0.38381,0.442063 0.59338,0.621093 0,0 -8e-4,0.03025 -0.0243,0.118843 0.0669,0.138454 0.15719,0.188312 0.2475,0.238173 0,0 -0.0475,0.01508 -0.0367,0.06969 0.0925,0.114072 0.17423,0.173532 0.25598,0.232997 0,0 -0.0302,7.94e-4 -0.0315,0.07853 0.12645,0.176096 0.25428,0.274471 0.38213,0.372846 0,0 -0.0938,0.02355 -0.0839,0.09735 0.17408,0.221369 0.33825,0.36894 0.50244,0.516517 0,0 -0.0211,0.0026 -0.0127,0.08065 0.11866,0.193818 0.22897,0.309536 0.33928,0.425257 0,0 -0.0539,0.0087 -0.0388,0.05796 0.0928,0.109188 0.1705,0.169145 0.24824,0.229105 0,0 -0.0218,-0.0011 -0.0242,0.08718 0.18113,0.293518 0.36471,0.498919 0.54829,0.704323 0,-5e-6 -0.0225,0.0033 -0.022,0.09092 0.28359,0.4655 0.56673,0.843397 0.84987,1.221293 0,0 -0.0333,0.0028 -0.0437,0.08714 0.30284,0.501052 0.61608,0.917707 0.92932,1.33436 0,-5e-6 0.0409,0.0456 -0.0122,0.15607 0.13407,0.323434 0.32119,0.536398 0.50829,0.749366 0,0 -0.0239,0.02387 -0.0496,0.101269 0.0936,0.186349 0.21278,0.295294 0.33197,0.404239 0,0 -0.0136,0.03107 -0.0373,0.09592 0.0498,0.129575 0.12334,0.194302 0.19685,0.259033 0,0 -0.0233,-0.0013 -0.0162,0.07531 0.10479,0.202063 0.20254,0.327488 0.30028,0.452912 0,0 -0.0327,-0.0011 -0.0393,0.08349 0.13111,0.243835 0.26881,0.403193 0.40651,0.562549 0,5e-6 0.007,0.04397 -0.0301,0.135329 0.035,0.153543 0.1071,0.215734 0.17924,0.277921 0,0 -0.0265,-0.0013 -0.0304,0.08633 0.12982,0.266882 0.26357,0.446156 0.39733,0.62543 -2e-5,8e-6 -0.005,0.01603 -0.0543,0.115673 0.1533,0.386532 0.35548,0.673425 0.55767,0.960318 0,0 -0.0171,0.02529 -0.0518,0.109271 0.14489,0.391959 0.32445,0.699934 0.50401,1.007909 0,0 -0.0231,7.94e-4 -0.026,0.09845 5.3e-4,0.271793 -0.0358,0.458428 0.0137,0.618496 1.27214,4.115027 2.54852,8.228769 3.84419,12.336422 0.081,0.25676 0.32534,0.462005 0.49371,0.691214 0.58943,2.497966 1.03679,5.040786 1.80722,7.481616 0.81276,2.57494 2.75548,4.17776 5.19886,5.32294 3.53938,1.65886 7.10935,3.3375 9.93905,6.13507 3.53102,3.49092 3.48608,9.04741 -1.39784,12.24603 -2.31575,1.51663 -4.882,2.67342 -7.40218,3.84868 -2.35541,1.09842 -4.78046,2.05761 -7.21474,2.9719 -0.99843,0.375 -2.28601,-0.0314 -3.12948,1.1299 -0.80814,0.62425 -0.51777,1.11745 0.0789,1.56947 0,0 -0.0227,0.0238 -0.0533,0.10005 0.084,0.19713 0.19867,0.31797 0.31331,0.43881 0,0 -0.0387,0.0193 -0.0595,0.0919 0.0984,0.18352 0.2176,0.29452 0.33678,0.40552 0,0 0.0128,0.0511 -0.0312,0.11669 0.15426,0.27302 0.35253,0.4804 0.55081,0.68777 0,0 -0.0417,0.0364 -0.0471,0.0914 0.0762,0.11612 0.15784,0.17723 0.23949,0.23834 0,0 -0.0341,5.3e-4 -0.0345,0.0755 0.11146,0.19616 0.22335,0.31727 0.33523,0.43837 0,0 -0.0462,0.005 -0.0532,0.0767 0.11209,0.1839 0.23112,0.29614 0.35015,0.40837 0,0 -0.0636,0.0737 -0.0715,0.12471 0.11622,0.14681 0.24033,0.24259 0.36441,0.33836 0,0 0.0139,0.0312 -0.0304,0.12456 0.19979,0.42029 0.44387,0.74724 0.68794,1.07419 0,0 -0.0184,-0.001 -0.005,0.0762 0.10537,0.20145 0.19745,0.32563 0.28953,0.44981 0,0 -0.0272,-0.002 -0.0221,0.0727 0.10487,0.20024 0.20467,0.32553 0.30447,0.45083 0,0 -0.035,-10e-4 -0.0398,0.0827 0.27611,0.55415 0.55702,1.0244 0.83793,1.49466 0,0 -0.0334,0.003 -0.0326,0.0762 0.0952,0.20459 0.18967,0.33604 0.28411,0.46749 0,0 -0.032,-0.002 -0.0319,0.0822 0.1268,0.27304 0.25343,0.46211 0.38005,0.65119 0,0 -0.0223,0.0307 -0.0542,0.10005 0.0585,0.20996 0.14878,0.35058 0.2391,0.49119 0,0 -0.0343,-0.002 -0.0404,0.082 0.20893,0.45147 0.42397,0.81911 0.63901,1.18676 0,0 -0.0303,0.016 -0.0559,0.0905 0.0743,0.20897 0.17418,0.34339 0.2741,0.47782 0,0 -0.0397,0.002 -0.0487,0.0912 0.26037,0.73902 0.52975,1.38892 0.79913,2.0388 0,0 -0.0211,-0.002 -0.0215,0.10144 0.43184,1.79996 0.86413,3.49606 1.29642,5.19216 0,0 0.0301,0.11484 0.0253,0.29998 -0.0831,1.82266 -0.16134,3.46016 -0.23958,5.09766 -2.09929,3.03216 -3.30834,3.47855 -6.63076,2.43948 -0.85969,-0.26886 -1.55048,-1.32289 -2.14086,-2.14418 -0.70272,-0.97758 -1.22199,-2.08843 -1.80561,-3.14986 -0.72449,-1.31754 -1.27067,-1.43748 -2.66597,-0.97055 -2.096,0.70143 -4.22532,1.3182 -6.36899,1.85754 -1.77572,0.44676 -3.60106,0.69263 -5.38845,1.09785 -1.21439,0.27531 -2.40122,0.67226 -3.77262,1.06211 -0.22915,0.13314 -0.28606,0.21898 -0.34299,0.30483 0,0 0.002,-0.0496 -0.0767,-0.0186 -0.62674,0.98546 -0.25267,3.82876 0.5358,4.70018 0.10575,1.07014 0.21149,2.14028 0.31725,3.44039 0.18626,2.4096 0.44731,4.5859 0.54339,6.76949 0.21016,4.77534 0.38008,9.55347 0.4767,14.33229 0.0412,2.03714 -0.14234,4.07881 -0.22372,6.11843 -0.78145,4.8239 -1.35587,9.69284 -2.39356,14.46097 -1.50238,6.90337 -3.76749,13.59862 -6.80075,19.98879 -1.68329,3.54624 -3.665876,6.95178 -5.556313,10.39729 -0.459758,0.83793 -0.848527,1.58808 0.151056,2.25666 0.245091,0.16393 0.703897,0.32353 0.894196,0.20703 2.929541,-1.79333 5.872431,-3.57095 8.721091,-5.4877 1.40408,-0.94477 2.62184,-2.16648 4.05192,-3.35635 0.37341,-0.37736 0.61881,-0.66129 0.86419,-0.94522 0,0 0.0154,0.0402 0.0716,0.0336 0.11822,-0.0821 0.18022,-0.15767 0.24223,-0.23322 0,0 -0.001,0.0213 0.10403,0.0222 1.47493,-0.0194 2.84486,-0.0397 4.21476,-0.06 0,-1e-5 -0.0366,2.7e-4 -0.0163,0.0835 0.29165,0.17039 0.563,0.25764 0.83435,0.34488 0,0 0.0115,0.0229 0.009,0.12353 0.26218,0.21935 0.5266,0.33803 0.79104,0.45673 0,0 -0.0163,0.0644 -0.0132,0.11572 0.1003,0.0763 0.19743,0.10125 0.29455,0.12622 0,2e-5 -0.0581,0.0791 -0.0375,0.12822 0.11443,0.0678 0.20824,0.0864 0.30206,0.10502 0,0 0.0304,0.0225 0.0111,0.12078 0.16112,0.22293 0.34153,0.34752 0.52193,0.47213 0,0 -0.0205,0.0307 -0.0284,0.0952 0.0775,0.12192 0.16288,0.17935 0.24824,0.23677 0,0 -0.0348,0.005 -0.0425,0.0821 0.1152,0.18503 0.23816,0.29332 0.36112,0.4016 0,0 -0.0166,0.0356 -0.0556,0.11816 0.19751,0.57067 0.43391,1.05876 0.67031,1.54683 0.44482,2.66349 -0.48614,4.81889 -2.61067,6.37493 -4.14066,3.03268 -8.34785,5.97455 -12.71339,8.97272 -0.35767,0.14617 -0.52941,0.27363 -0.70115,0.40111 0,0 -0.0206,-0.0515 -0.0725,-0.0516 -0.11824,0.074 -0.18458,0.14815 -0.25092,0.22226 0,0 0.002,-0.0238 -0.0735,-0.0191 -0.19871,0.10417 -0.32164,0.20371 -0.44455,0.30327 0,0 -7.9e-4,-0.0289 -0.0897,-0.0351 -0.89733,0.46635 -1.70579,0.93887 -2.51425,1.41137 0,0 -0.0182,-0.031 -0.0931,-0.0506 -0.20264,0.0891 -0.33035,0.19778 -0.45808,0.30649 0,0 -0.009,-0.0427 -0.0912,-0.0585 -0.61674,0.28841 -1.151092,0.59258 -1.685426,0.89675 -1.8e-5,0 -0.02236,-0.005 -0.120764,-0.0466 -0.215828,0.0705 -0.333264,0.18278 -0.450715,0.29509 -1.6e-5,0 -0.02537,-0.0233 -0.112977,-0.059 -0.893389,0.35608 -1.699186,0.74771 -2.504982,1.13938 0,0 -0.02937,-0.007 -0.128482,-0.0603 -0.494914,0.12798 -0.890722,0.30925 -1.286531,0.49054 0,0 -5.29e-4,-0.0314 -0.09316,-0.0392 -0.35061,0.0243 -0.618456,0.0225 -0.865259,0.0937 -3.21844,0.92728 -6.435887,1.85809 -9.648854,2.80413 -0.963758,0.28377 -1.912858,0.61727 -2.868679,0.928 -1.083963,0.13475 -2.167924,0.26948 -3.479197,0.40275 -4.584506,0.17124 -8.941847,0.34028 -13.298704,0.52107 -0.580737,0.0241 -1.159005,0.10753 -1.738418,0.16346 -0.341445,-0.0238 -0.68289,-0.0476 -1.137537,-0.113 -0.113212,-0.0417 -0.08082,-0.0494 -0.08082,-0.0494 -0.413025,0 -0.826047,-0.003 -1.384776,-0.12292 -2.333884,-0.38772 -4.522057,-0.65493 -6.710233,-0.92213 -3.869208,-0.5243 -7.658809,-1.32321 -11.272493,-2.88552 -2.054479,-0.88823 -4.215596,-1.52659 -6.291114,-2.36995 -6.212517,-2.52424 -11.933833,-5.90042 -17.186854,-10.06859 -9.216311,-7.31294 -16.2216203,-16.39249 -21.4555495,-26.88284 -0.4235133,-0.84883 -0.7742873,-1.73397 -1.1809121,-2.79539 -0.2255706,-0.55129 -0.4290907,-0.90942 -0.6326108,-1.26754 -5.3e-6,0 0.038325,-0.0118 0.055345,-0.0987 -0.3706098,-0.89883 -0.7582403,-1.71078 -1.1458734,-2.52273 0,0 0.028789,-0.0247 0.0621,-0.11117 -0.2681261,-0.71615 -0.5695633,-1.34583 -0.8709978,-1.97549 0,0 0.00659,-0.0305 0.058306,-0.13733 -0.559062,-2.08781 -1.1698499,-4.06879 -1.7761347,-6.15762 -0.4269846,-2.18557 -0.8445315,-4.26636 -1.2958921,-6.33976 -0.2234962,-1.0267 -0.5092536,-2.03983 -0.7668416,-3.0591 -0.124346,-0.96771 -0.24869,-1.9354 -0.318532,-3.11829 0.04463,-0.89235 0.01482,-1.56991 0.02824,-2.24661 0.07306,-3.68045 0.166508,-7.36052 0.225115,-11.04117 0.0078,-0.48631 -0.143438,-0.97515 -0.221017,-1.46283 0.168029,-1.56199 0.336053,-3.12399 0.619665,-4.81894 0.2250149,-0.35458 0.3787801,-0.5651 0.4372028,-0.79942 0.8466322,-3.39556 1.6833029,-6.79364 2.5066016,-10.19492 0.031536,-0.13026 -0.095372,-0.29889 -0.1484498,-0.44963 1.4485673,-3.52463 2.8153545,-7.08564 4.3638734,-10.56579 2.66433298,-5.9878 6.5784147,-11.17944 10.6441027,-16.26204 1.3538253,-1.69244 1.1872569,-2.18964 -0.8675343,-2.74295 -2.1028316,-0.56624 -4.2426678,-1.03604 -6.2849098,-1.77347 -1.6626787,-0.60038 -3.2721735,-1.42405 -4.7834153,-2.34799 -1.7626038,-1.0776 -2.5234767,-3.67589 -1.8878893,-5.74371 0.7777956,-2.5305 2.3110031,-4.51661 4.3761051,-6.14373 3.1384874,-2.47286 6.486591,-4.58357 10.1895273,-6.11223 0.222975,-0.0921 0.3942795,-0.30927 0.7891833,-0.46641 0.6992276,-0.27478 1.1988883,-0.5514 1.6985513,-0.82803 0,0 -1.96e-4,0.0305 0.07237,0.0294 0.203078,-0.0917 0.333592,-0.18238 0.464097,-0.27302 0,0 -7.93e-4,0.0216 0.09693,0.0222 1.437518,-0.47164 2.789661,-0.91211 4.11162,-1.42967 0.652835,-0.25561 1.249966,-0.6535 1.872297,-0.98702 0,0 -7.93e-4,0.0263 0.09463,0.0309 0.793504,-0.30796 1.491599,-0.62045 2.189694,-0.93295 0,0 0.01961,0.004 0.09281,0.0351 0.140997,-0.0384 0.208802,-0.10752 0.276601,-0.1766 0,0 -0.0027,0.0212 0.07264,0.0147 0.201255,-0.0997 0.327179,-0.19289 0.453107,-0.28607 0,0 -0.0019,0.0235 0.07414,0.0187 0.200763,-0.10421 0.32544,-0.20368 0.450109,-0.30316 0,0 -5.29e-4,0.0335 0.07454,0.0334 0.212246,-0.10022 0.349316,-0.20036 0.486389,-0.3005 1.776772,-1.28324 2.840469,-3.1519 3.978981,-4.94042 3.819446,-6.000095 7.393919,-12.168106 11.449923,-18.002261 4.035039,-5.804003 8.472898,-11.33435 12.86932,-16.877464 1.668034,-2.103101 3.713266,-3.907049 5.740112,-5.90586 0.210994,-0.141541 0.268451,-0.224567 0.325903,-0.307591 0,0 0.0021,0.04162 0.05351,0.01386 0.10437,-0.111646 0.157451,-0.195535 0.210524,-0.279429 0,0 0.0032,0.04261 0.05415,0.01654 0.104193,-0.109369 0.157467,-0.192678 0.210751,-0.275982 0,0 0.0031,0.03782 0.05579,0.01175 0.105118,-0.108922 0.157604,-0.191776 0.210087,-0.274638 0,0 0.0029,0.03735 0.05582,0.01154 0.105016,-0.108934 0.157144,-0.19204 0.209283,-0.27514 0,0 0.0029,0.03705 0.05522,0.01103 0.105362,-0.107709 0.158395,-0.189389 0.21142,-0.271071 8e-6,5e-6 -2.64e-4,0.02894 0.07742,0.02299 0.199134,-0.18742 0.320548,-0.36889 0.441971,-0.55036 0,0 0.0067,0.02983 0.06116,0.0035 0.107534,-0.10745 0.160634,-0.188548 0.213722,-0.269645 0,-5e-6 0.0026,0.03463 0.05431,0.0067 0.105066,-0.108556 0.158379,-0.189172 0.211695,-0.26979 0,0 -5.29e-4,0.02815 0.07765,0.02315 0.199027,-0.18678 0.319966,-0.368554 0.440904,-0.550326 0,0 0.007,0.02883 0.06212,0.0027 0.106892,-0.108517 0.158663,-0.190873 0.210437,-0.273233 0.121004,-0.150188 0.242001,-0.300376 0.503539,-0.505301 0.208296,-0.133795 0.276074,-0.21286 0.343842,-0.29192 5.903735,-5.788583 12.113545,-11.214518 18.90541,-15.950266 4.178218,-2.91333 8.503229,-5.594152 13.251429,-7.466073 3.679668,-1.45066 7.506194,-2.447685 11.651429,-2.787304 0.5101,-0.01392 0.85849,0.07808 1.18694,0.03105 3.82132,-0.547216 7.61749,-0.261228 11.40728,0.306123 1.05018,0.08252 2.10036,0.165039 3.28358,0.368057 2.59506,0.828024 5.05709,1.535551 7.5191,2.243076 0,0 -0.0334,0.0032 0.0116,0.07539 0.5552,0.19899 1.06546,0.325818 1.5757,0.452644 0,0 -0.0263,0.0078 0.005,0.08786 0.45493,0.204552 0.87897,0.329067 1.30299,0.453588 0,0 -0.0168,0.0092 0.016,0.06849 0.1294,0.06715 0.22601,0.07496 0.32262,0.08277 0,0 -0.0423,-0.0033 -0.013,0.08727 0.27219,0.149884 0.51511,0.209161 0.75804,0.268436 0,0 -0.0329,0.0095 -2.6e-4,0.07516 0.19947,0.105805 0.36637,0.145908 0.53328,0.18601 0,0 -0.0335,0.0097 -10e-4,0.07539 0.19929,0.106294 0.36611,0.146902 0.53293,0.187511 0,0 -0.0324,0.0083 -0.008,0.06634 0.11823,0.06786 0.21184,0.07769 0.30546,0.08752 0,3e-6 0.0325,-0.0097 0.0323,0.08872 0.51455,0.309983 1.02931,0.521581 1.54409,0.733177 0,0 0.0129,-0.01148 0.0145,0.08874 0.34163,0.240548 0.68157,0.380881 1.0215,0.521213 0,-3e-6 -0.0358,0.0104 -0.006,0.07317 0.18932,0.114491 0.34855,0.166227 0.50777,0.217967 0,0 -0.0193,0.0065 0.01,0.06688 0.12344,0.09387 0.21767,0.12733 0.3119,0.160787 0,0 -0.0547,0.0075 -0.0266,0.0669 0.18928,0.113625 0.35041,0.167851 0.51153,0.222075 0,0 -0.0243,0.0072 0.004,0.06803 0.12595,0.08698 0.22339,0.113115 0.32083,0.139242 0,0 -0.0444,0.005 -0.029,0.06813 0.10923,0.082 0.20306,0.10087 0.2969,0.11974 0,-3e-6 0.0316,0.0029 0.0288,0.09801 0.15943,0.143039 0.32159,0.190936 0.48376,0.238834 0,0 -0.0389,0.01765 -0.0197,0.08532 0.17712,0.128278 0.33499,0.188886 0.49288,0.249497 0,2e-6 -0.0216,0.0061 0.007,0.06463 0.11705,0.100679 0.20598,0.142788 0.29492,0.184894 0,0 -0.0456,0.0053 -0.0183,0.05988 0.1236,0.09274 0.21996,0.130897 0.3163,0.169053 0,0 -0.0518,0.0027 -0.0383,0.07361 0.20388,0.151955 0.39426,0.233013 0.58462,0.314068 0,-3e-6 0.042,0.03235 0.0219,0.142698 0.32157,0.344506 0.6632,0.578667 1.00485,0.812831 0,0 -0.052,0.0082 -0.0301,0.06325 0.11769,0.09749 0.21357,0.139896 0.30944,0.182301 0,0 -0.0499,0.01214 -0.0349,0.07058 0.11011,0.10354 0.20524,0.148648 0.30036,0.193757 0,0 -0.0486,0.01392 -0.0359,0.07232 0.10629,0.106132 0.19987,0.153874 0.29347,0.20161 0,0 -0.049,0.0123 -0.0347,0.06883 0.10477,0.108434 0.19521,0.160343 0.28564,0.212246 0,0 -0.0489,0.0097 -0.0308,0.06227 0.10283,0.107249 0.18751,0.16192 0.27218,0.216588 0,-3e-6 -0.0401,0.0057 -0.0168,0.05733 0.10224,0.107228 0.18114,0.162828 0.26006,0.218424 0,-2e-6 -0.0225,2.46e-4 -0.0214,0.08124 0.18712,0.290054 0.37314,0.499118 0.55917,0.708176 0,0 -0.0269,0.0034 -0.0254,0.07925 0.10366,0.202035 0.20584,0.328194 0.30799,0.454353 0,0 -0.0406,-0.0011 -0.0423,0.06852 0.091,0.202184 0.18376,0.334661 0.27648,0.467138 M 34.837005,193.80711 c -0.03808,0.0949 -0.07617,0.1899 -0.143499,0.22933 0,0 0.05956,-0.0198 -0.139891,0.0902 -0.443643,3.88634 0.05739,7.70064 0.961983,11.69095 0.163645,0.98951 0.327281,1.97903 0.477787,3.19437 0.07172,0.87156 -0.202515,1.88141 0.89091,2.34854 0,0 0.01879,-0.0404 0.0088,0.13954 0.152524,0.067 0.305051,0.13391 0.436639,0.20779 0,0 -7.94e-4,-0.022 0.09283,0.15545 1.215041,0.80788 2.38896,0.12139 3.800777,-0.13915 0.3688,-0.0868 0.733303,-0.21221 1.107136,-0.25383 1.682988,-0.18728 3.366177,-0.38171 5.053962,-0.51423 1.690844,-0.13273 3.388164,-0.18113 5.080585,-0.29675 0.511976,-0.035 1.016815,-0.17225 1.525415,-0.25974 0.513252,-0.0883 1.024639,-0.2256 1.541169,-0.25015 2.046766,-0.0972 4.095237,-0.15869 6.255594,-0.10757 0.302726,-0.16237 0.605446,-0.32475 0.912953,-0.4499 0,0 -0.03752,-0.001 0.105516,-0.0565 0.04773,-0.0874 0.09546,-0.17482 0.146124,-0.21494 0,0 -0.04689,-0.007 0.163951,-0.0621 0.122352,-0.17518 0.351788,-0.35075 0.351174,-0.52552 -0.0113,-3.17826 -0.04857,-6.35647 -0.09792,-9.53441 -7.94e-4,-0.053 -0.220247,-0.10251 -0.37769,-0.40114 -0.0046,-1.09228 0.08048,-2.19489 -0.04409,-3.27331 -0.0888,-0.76888 -0.459454,-1.50518 -0.854924,-2.44016 -3.38709,0 -6.774183,0 -10.112478,0 0.184412,0.0786 0.434573,0.18513 0.443238,0.35364 -2.31035,-0.028 -4.620705,-0.056 -7.012937,-0.26361 -0.237324,-0.0744 -0.474486,-0.21291 -0.711997,-0.21351 -2.985338,-0.008 -5.970733,0.005 -9.086056,0.0938 -0.0058,0.0994 -0.01154,0.19872 -0.07224,0.28012 0,0 0.0218,-0.0535 -0.135337,-0.0472 -0.06325,0.0785 -0.126492,0.1571 -0.193601,0.19542 0,0 0.04037,0.001 -0.100226,0.0557 -0.05361,0.0822 -0.10722,0.16431 -0.162441,0.20947 0,0 0.03681,0.004 -0.111226,0.0593 m 16.257026,-61.70072 c 0,0 0.03493,0.004 -0.107415,0.0484 -0.05265,0.0809 -0.105307,0.16191 -0.16128,0.21122 0,0 0.03166,0.003 -0.109384,0.0583 -0.04336,0.0882 -0.08672,0.17629 -0.133035,0.22805 0,0 0.03454,0.0118 -0.06929,0.0145 -0.03017,0.0156 -0.06034,0.0312 -0.09051,0.0468 0.03278,0.0541 0.06556,0.10818 0.06298,0.33937 -2.012394,3.29455 -4.024778,6.58909 -6.178417,9.9723 -0.02833,0.16086 -0.05667,0.32173 -0.09309,0.45476 0,0 0.02899,-8e-4 -0.112414,0.0566 -0.01045,0.0927 -0.0209,0.18543 -0.01482,0.30165 0,0 0.0035,0.0285 -0.196006,0.0143 -0.06453,0.23921 -0.129064,0.47842 -0.202645,0.6854 0,0 0.03347,-0.001 -0.131138,0.0663 -0.0395,0.16673 -0.079,0.33345 -0.126413,0.47016 0,0 0.03088,0.003 -0.1554,0.0431 -0.269097,0.70771 -0.538186,1.41542 -0.79308,2.13658 0,0 0.006,0.0186 -0.193165,0.0248 -0.237818,0.68284 -0.475633,1.36569 -0.72159,2.01948 0,0 0.03014,-0.001 -0.125889,0.0623 -0.04798,0.1552 -0.09598,0.3104 -0.167357,0.6635 -0.206335,0.54983 -0.412678,1.09967 -0.801211,1.71222 -0.322598,0.66354 -0.635556,1.32541 0.287975,1.77162 0,0 0.005,-0.02 0.02862,0.18333 0.400656,0.20883 0.788913,0.56606 1.204119,0.60075 1.78458,0.14906 3.577074,0.2033 5.533278,0.43696 4.100992,0.12047 8.201994,0.24094 12.532397,0.37215 1.010944,-0.0702 2.223855,0.36826 2.897579,-1.11521 0.09944,-0.44523 0.279416,-0.88942 0.285213,-1.33587 0.03757,-2.89519 0.04896,-5.79088 0.04636,-8.6864 -0.0033,-3.63902 -0.02299,-7.27807 -0.05598,-10.91692 -0.0021,-0.23154 -0.179671,-0.46148 -0.260837,-0.8861 -0.191138,-0.1899 -0.382275,-0.3798 -0.541981,-0.57659 0,0 -0.0026,0.0321 -0.06754,-0.12523 -0.15674,-0.0504 -0.313473,-0.10088 -0.452184,-0.16112 0,0 0.0021,0.0204 -0.100132,-0.14069 -3.295454,-0.91839 -6.568349,-0.3452 -9.83585,0.18095 -0.211686,0.0341 -0.370777,0.39483 -0.576022,0.56645 0,0 0.04281,0.004 -0.113792,0.004 -0.06221,0.0776 -0.124436,0.15523 -0.190646,0.19787 M 62.748147,79.46469 c 0,0 0.03919,0.01241 -0.06631,0.01942 -0.03096,0.01527 -0.06192,0.03053 -0.09289,0.04578 0.03424,0.05392 0.06848,0.107837 0.09541,0.365559 -0.415171,1.425099 0.0163,2.298645 1.503011,3.392228 2.014905,1.482096 4.0631,2.934671 5.952842,4.56683 1.955897,1.689312 3.013471,3.928428 2.727102,6.556441 -0.178194,1.635252 -0.665882,3.239337 -1.050896,4.848752 -0.375824,1.57105 -0.862552,3.11821 -1.1763,4.70051 -0.205438,1.03605 0.0154,2.04465 1.089684,2.59005 1.011422,0.51349 1.839108,0.0496 2.665632,-0.5358 1.9696,-1.39502 3.895847,-2.87145 5.971262,-4.09094 1.917753,-1.12685 3.924525,-2.364227 6.327053,-1.07471 1.825162,0.97962 3.728759,1.81802 5.522835,2.8491 1.599176,0.91908 3.096001,2.01626 4.672568,3.2045 0.423828,-0.0853 0.847654,-0.17061 1.26872,-0.22842 0,0 -0.02674,-0.007 0.152204,-0.0169 0.115885,-0.11185 0.231754,-0.22369 0.354372,-0.27768 0,0 -0.0577,-0.008 0.126365,-0.0248 0.120907,-0.19078 0.241829,-0.38155 0.381484,-0.51764 0,0 -0.05776,-0.002 0.158049,-0.042 0.145034,-0.38748 0.460777,-0.80149 0.405403,-1.15782 -0.233982,-1.5057 -0.503764,-3.0146 -0.904306,-4.48309 -0.373669,-1.370052 -0.929222,-2.690498 -1.472941,-4.237786 0.0096,-0.142298 0.0191,-0.284594 0.109895,-0.600337 0.11204,-1.261105 0.161665,-2.532055 0.358198,-3.779848 0.129643,-0.823254 0.470627,-1.613226 0.800243,-2.364348 0,0 -0.07416,-0.06575 0.1138,-0.05888 0.05814,-0.160705 0.116287,-0.32141 0.183951,-0.450003 0,0 -0.03327,-0.004 0.122635,-0.04378 0.04191,-0.09425 0.0838,-0.188505 0.134553,-0.233989 0,0 -0.04882,-0.0086 0.113544,-0.03668 0.04638,-0.09348 0.09276,-0.186955 0.150521,-0.231455 0,0 -0.04983,-0.0068 0.111752,-0.03513 0.04882,-0.09232 0.09762,-0.184637 0.164217,-0.225179 0,0 -0.05463,0.0035 0.10954,-0.04241 0.05579,-0.09583 0.111588,-0.191672 0.247591,-0.437806 1.70667,-1.286758 3.42158,-2.562794 5.11579,-3.865726 0.65351,-0.502587 1.36474,-0.983697 1.86613,-1.619359 1.03841,-1.316524 0.28006,-3.141014 -1.3749,-3.472489 -0.38245,-0.0766 -0.77957,-0.07992 -1.12102,-0.27405 -2.56493,-0.02918 -5.129871,-0.05836 -7.897497,-0.05436 -2.118201,-0.425566 -4.075123,-1.349473 -5.172456,-3.18162 -1.496147,-2.498061 -2.644833,-5.20741 -3.889145,-7.851291 -0.411618,-0.874604 -0.579631,-1.864688 -0.998363,-2.734918 -0.633732,-1.317009 -2.329381,-1.438288 -3.174897,-0.246666 -0.425386,0.599543 -0.75261,1.278311 -1.059172,1.950897 -1.181758,2.592811 -2.170821,5.291479 -3.564842,7.762769 -0.840187,1.489456 -2.080048,2.868676 -4.003656,3.556225 -0.14459,0.09889 -0.289187,0.197787 -0.43351,0.260369 0,0 0.03538,0.0082 -0.20148,-0.01418 -0.954553,0.08632 -1.907958,0.227132 -2.8639,0.247285 -1.823993,0.03845 -3.653719,-0.06667 -5.472478,0.03757 -0.922012,0.05284 -2.0727,-0.153837 -2.602449,1.175885 -0.04613,0.07908 -0.114882,0.121467 -0.348557,0.18507 -0.04484,0.08934 -0.08967,0.178679 -0.134392,0.226912 M 19.595301,142.94035 c 0,0 0.03191,0.002 -0.103894,0.0576 -0.05258,0.0801 -0.105158,0.16018 -0.159578,0.20815 0,0 0.03213,0.002 -0.104362,0.0561 -0.05299,0.08 -0.105979,0.16008 -0.160443,0.20829 0,0 0.03182,0.002 -0.104807,0.0561 -0.0527,0.0802 -0.105397,0.16047 -0.159666,0.2086 0,0 0.03209,0.002 -0.104685,0.0559 -0.05272,0.0803 -0.105439,0.1606 -0.159813,0.20867 0,0 0.03222,0.002 -0.105053,0.0575 -0.05155,0.0819 -0.103106,0.16373 -0.156848,0.2098 0,0 0.03581,0.002 -0.102846,0.0552 -0.05375,0.0806 -0.107511,0.16122 -0.163179,0.2081 0,0 0.03373,0.002 -0.103542,0.0576 -0.05326,0.0809 -0.106524,0.1618 -0.160824,0.20727 0,0 0.03533,0.003 -0.105477,0.0539 -0.05224,0.0824 -0.104476,0.16481 -0.15871,0.21093 0,0 0.03629,0.002 -0.10505,0.0538 -0.05224,0.0826 -0.104481,0.16511 -0.158901,0.2113 0,0 0.03639,0.002 -0.105354,0.0525 -0.0528,0.0827 -0.105606,0.1654 -0.160174,0.21146 0,0 0.03661,0.002 -0.105537,0.0541 -0.05147,0.084 -0.102933,0.16799 -0.157027,0.2125 0,0 0.03951,0.002 -0.104373,0.0528 -0.05014,0.0848 -0.100275,0.16963 -0.154149,0.21698 0,0 0.03753,0.003 -0.109014,0.0515 -0.05067,0.0867 -0.101327,0.17332 -0.160557,0.21135 0,0 0.04928,-0.003 -0.112453,0.0715 -0.05005,0.10666 -0.100105,0.21332 -0.206669,0.47616 -1.124862,1.28073 -2.249725,2.56146 -3.369259,4.00116 0.171426,0.15138 0.332353,0.42054 0.515808,0.4369 4.241538,0.37796 8.48552,0.72844 12.862046,1.24372 0.907542,-0.0764 1.815079,-0.15285 2.719406,-0.18444 0,0 -0.04363,-0.0108 0.1373,-0.007 0.130482,-0.0983 0.260972,-0.1965 0.39483,-0.24824 0,0 -0.0466,-0.002 0.09691,-0.0497 0.05557,-0.0809 0.111151,-0.16189 0.170079,-0.2084 0,0 -0.03461,6e-5 0.102756,-0.0641 0.04572,-0.0879 0.09144,-0.17575 0.136086,-0.2188 0,0 -0.04306,-0.0125 0.155602,-0.0501 0.124743,-0.43248 0.249486,-0.86497 0.380219,-1.26018 0,0 -0.03768,-0.002 0.138361,-0.079 0.04453,-0.24591 0.08905,-0.49182 0.139454,-0.70789 0,0 -0.03038,0.002 0.140158,-0.0846 0.03885,-0.24744 0.0777,-0.49487 0.120534,-0.71559 0,0 -0.02693,-0.002 0.161723,-0.0562 0.205553,-0.69921 0.41111,-1.39843 0.620861,-2.05897 0,0 -0.03872,-0.004 0.132461,-0.0772 0.0236,-0.17482 0.04719,-0.34964 0.08059,-0.47853 0,0 -0.04507,-0.0132 0.149238,-0.0679 0.0496,-0.24944 0.09919,-0.4989 0.156242,-0.70607 0,0 -0.04271,-0.004 0.132403,-0.0698 0.03086,-0.17419 0.06172,-0.3484 0.104783,-0.47563 0,0 -0.04787,-0.008 0.141803,-0.0662 0.05316,-0.24667 0.106307,-0.49334 0.163291,-0.70626 0,0 -0.03373,-0.004 0.156837,-0.0506 0.131429,-0.41295 0.262863,-0.82592 0.441769,-1.42936 1.210964,-2.44276 2.455421,-4.8697 3.620143,-7.33432 0.682032,-1.44321 0.384191,-2.2989 -0.718947,-2.28603 -2.143628,0.025 -4.189206,0.74185 -5.8962,1.87642 -3.047796,2.02574 -5.871736,4.3883 -8.997997,6.61608 -0.150654,0.18701 -0.3013,0.37402 -0.45992,0.52723 0,0 0.0347,0.001 -0.11515,0.0425 -0.05211,0.0857 -0.104214,0.17145 -0.160517,0.21529 0,0 0.04207,0.002 -0.103224,0.05 -0.05257,0.0841 -0.105138,0.16829 -0.161465,0.2135 0,0 0.03907,0.002 -0.101926,0.0532 -0.05527,0.0804 -0.11054,0.16074 -0.167589,0.20628 0,0 0.03483,0.002 -0.102087,0.0565 -0.05437,0.0795 -0.108739,0.1589 -0.164431,0.20642 m 88.167853,9.61783 c 0.0808,0.0499 0.1615,0.0999 0.20703,0.15249 0,0 0.002,-0.0353 0.0697,0.11941 0.15733,0.0479 0.31465,0.0959 0.45569,0.1554 0,0 0.002,-0.0199 0.0804,0.16803 0.35622,0.12063 0.74663,0.40167 1.06271,0.33423 1.39423,-0.29748 2.76707,-0.69535 4.35397,-1.04832 2.43323,-0.8697 4.88639,-1.68854 7.29106,-2.63112 1.15489,-0.45268 1.31071,-1.1892 0.53113,-2.1623 -1.03932,-1.29736 -2.15316,-2.53716 -3.27276,-3.7673 -0.77067,-0.84674 -1.60541,-1.63515 -2.46375,-2.60461 -0.0955,-0.0435 -0.19103,-0.087 -0.22678,-0.12945 0,0 -0.0208,0.056 -0.0514,-0.11975 -0.15536,-0.0639 -0.31073,-0.12776 -0.44515,-0.1977 0,0 0.002,0.0217 -0.0543,-0.11874 -0.0898,-0.0406 -0.17959,-0.0811 -0.22469,-0.12572 0,0 -0.007,0.0443 -0.0425,-0.14221 -0.26326,-0.12311 -0.52652,-0.24623 -0.75068,-0.38045 0,0 -0.001,0.0406 -0.0567,-0.12608 -0.16002,-0.0525 -0.32002,-0.10506 -0.45966,-0.16802 0,0 -0.004,0.0226 -0.015,-0.17733 -0.28356,-0.0916 -0.56712,-0.18314 -0.80954,-0.28638 0,0 -0.0113,0.0412 -0.0586,-0.14254 -0.17099,-0.0337 -0.34196,-0.0674 -0.47356,-0.11124 0,0 -0.0149,0.0378 -0.0558,-0.14913 -0.17151,-0.0268 -0.34302,-0.0536 -0.45999,-0.0839 0,0 -0.0502,0.0217 -0.0752,-0.17946 -0.42701,-0.11575 -0.85404,-0.23149 -1.28923,-0.31747 0,0 -0.0301,0.007 -0.0427,-0.19512 -2.62887,-0.68432 -5.25254,-1.39042 -7.89453,-2.01958 -0.26685,-0.0635 -0.64431,0.33752 -0.96827,0.49661 0,0 0.025,0.008 -0.10508,0.004 -0.0524,0.0831 -0.10484,0.16614 -0.23862,0.43575 0.0898,0.68968 0.0346,1.43998 0.29354,2.05892 1.38681,3.3153 2.85192,6.59785 4.27498,10.10038 0.31172,0.60424 0.62346,1.20847 0.93071,1.83171 0,0 -0.0176,0.008 -0.0548,0.15633 0.0689,0.0665 0.13776,0.13291 0.18524,0.19915 0,0 0.008,-0.0197 0.0151,0.15425 0.10154,0.12211 0.20308,0.24419 0.26117,0.37019 0,0 0.004,-0.0435 0.0453,0.0994 0.0775,0.0573 0.15505,0.11464 0.20556,0.17381 0,0 10e-4,-0.027 0.061,0.10248 0.0764,0.054 0.15279,0.10796 0.20453,0.16328 0,0 0.002,-0.0246 0.0604,0.10791 M 73.7442,166.03652 c -0.02652,0.0957 -0.05303,0.19128 -0.09267,0.24553 0,0 0.04002,0.0169 -0.170701,0.0529 -0.148659,0.44083 -0.422939,0.88067 -0.426411,1.32265 -0.03212,4.09167 -0.04191,8.18406 0.0131,12.27528 0.0072,0.53551 0.416544,1.06563 0.764278,1.72415 0.797124,0.27607 1.591884,0.78403 2.391738,0.79218 7.745627,0.0789 15.49228,0.10092 23.238026,0.0481 0.71267,-0.005 1.42102,-0.63989 2.27367,-0.90746 0,-2.02525 0,-4.05049 0,-6.12866 -0.0563,0.4068 -0.10691,0.7722 -0.25867,0.93806 -0.0492,-0.56937 -0.0732,-1.14225 -0.15176,-1.70752 -0.43085,-3.09831 -0.87512,-6.19473 -1.341244,-9.45254 -0.104465,-0.10513 -0.208949,-0.21025 -0.254682,-0.3212 0,0 -0.0044,0.0589 -0.05229,-0.10006 -0.09831,-0.0367 -0.19663,-0.0735 -0.242816,-0.13685 0,0 0.0072,0.0581 -0.05226,-0.14406 -0.664284,-0.14051 -1.33758,-0.43454 -1.991333,-0.39609 -3.627895,0.2133 -7.251044,0.50737 -11.099123,0.76342 -0.622578,0.14342 -1.24515,0.28686 -2.04955,0.49681 -0.127367,-0.011 -0.25474,-0.022 -0.555871,-0.15897 -2.889493,-0.0253 -5.779103,-0.0683 -8.668316,-0.0498 -0.306109,0.002 -0.609928,0.36427 -0.897546,0.51094 0,0 0.04564,0.0238 -0.103417,0.06 -0.05227,0.0835 -0.104532,0.16706 -0.162015,0.21378 0,0 0.03683,0.005 -0.110144,0.0594 M 22.831409,237.7421 c 0.08698,0.051 0.173964,0.10193 0.213027,0.16194 0,0 -0.0031,-0.0487 0.0687,0.11335 0.105886,0.0501 0.211775,0.10012 0.478586,0.19493 5.03096,4.68982 10.905747,8.11698 16.831556,11.38629 1.362184,-0.9418 0.697251,-1.822 0.147707,-2.74549 -2.071524,-3.48105 -4.26552,-6.90016 -6.132169,-10.48889 -1.690489,-3.25006 -3.052397,-6.67479 -4.480031,-10.05591 -0.546237,-1.29362 -1.356182,-1.91909 -2.741234,-1.63354 -1.597311,0.3293 -3.183194,0.71412 -4.978013,1.08982 -0.328372,0.13194 -0.656744,0.26387 -1.020885,0.37491 0,0 0.02479,-0.0332 -0.195828,-0.0984 -1.153105,0.3935 -2.306207,0.787 -3.497911,1.16692 0,0 0.0078,-0.0402 -0.198959,-0.10503 -0.460475,0.20709 -0.920954,0.41417 -1.396987,0.58087 0,0 0.04232,0.009 -0.144145,-0.0379 -0.127195,0.10878 -0.254396,0.21756 -0.394202,0.26959 0,0 0.05798,0.004 -0.100195,0.0255 -0.05737,0.084 -0.114734,0.16807 -0.176948,0.21028 0,0 0.0419,0.004 -0.108395,0.0592 -0.0326,0.0968 -0.0652,0.19363 -0.09629,0.23043 0,0 0.05488,0.0243 -0.133334,0.0537 0.15127,0.371 0.30254,0.74198 0.428736,1.14362 0,0 -0.0048,-0.0393 -0.01765,0.12761 0.09268,0.0483 0.185357,0.0966 0.233532,0.1608 0,0 0.0071,-0.0467 0.0095,0.11094 0.0714,0.0711 0.142804,0.14227 0.30951,0.36091 0.762103,0.80029 1.524209,1.60056 2.336226,2.55361 0.08244,0.0633 0.164877,0.12667 0.202379,0.19096 0,0 0.004,-0.0448 0.05786,0.0969 0.08198,0.0554 0.163957,0.11073 0.208439,0.16712 0,0 0.0044,-0.0373 0.04975,0.10709 0.08307,0.0517 0.166126,0.10338 0.212963,0.15785 0,0 0.0021,-0.0363 0.05025,0.10624 0.08186,0.0528 0.163719,0.10565 0.211088,0.16161 0,0 5.29e-4,-0.0346 0.05708,0.10295 0.08105,0.0534 0.16211,0.1069 0.360278,0.18773 0.0757,0.0462 0.113078,0.11368 0.167463,0.33983 0.07979,0.0549 0.159583,0.10974 0.207211,0.16566 0,0 0.0019,-0.0321 0.05574,0.10406 0.07962,0.0528 0.159237,0.10554 0.208507,0.15997 0,0 0.0013,-0.0304 0.05789,0.10223 0.07729,0.0539 0.15458,0.10782 0.210116,0.16142 0,0 0.0041,-0.0214 0.01193,0.15857 0.17454,0.12332 0.349086,0.24664 0.506312,0.3763 0,0 0.01024,-0.0153 0.02811,0.15827 0.122619,0.0692 0.245237,0.13832 0.367163,0.23353 0,0 0.0236,0.011 -0.01603,0.18303 0.147714,0.0694 0.295436,0.13875 0.42269,0.21226 0,0 -7.93e-4,-0.0209 0.05829,0.10951 0.0781,0.0521 0.156184,0.10419 0.205407,0.15773 0,0 0.0013,-0.0289 0.05951,0.10285 0.0779,0.0534 0.155782,0.1069 0.205174,0.16176 0,0 0.0013,-0.0285 0.06144,0.1031 0.07878,0.0529 0.157541,0.10585 0.204891,0.16006 0,0 0.0021,-0.0314 0.06069,0.10651 0.08502,0.0491 0.170048,0.0982 0.212082,0.14873 0,0 0.0053,-0.0427 0.0514,0.10606 m 39.561473,-16.69236 c 0,0 -0.0114,0.0576 -0.04011,-0.12287 -0.161036,-0.0569 -0.322082,-0.1138 -0.451847,-0.18019 0,0 5.29e-4,0.0327 -0.08351,-0.15954 -0.364723,-0.13056 -0.732174,-0.38063 -1.093716,-0.37236 -2.415363,0.0552 -4.829945,0.15584 -7.243009,0.27718 -0.18492,0.009 -0.356124,0.29149 -0.777867,0.4872 -1.157666,0.0914 -2.316485,0.17004 -3.472754,0.27659 -2.653318,0.24453 -5.305377,0.50262 -8.015507,0.67291 -0.0561,0.0559 -0.11221,0.11185 -0.172598,0.14017 0,0 0.02744,0.005 -0.160827,0.006 -0.118735,0.18581 -0.237469,0.37162 -0.369544,0.51205 0,0 0.04687,-0.006 -0.143748,0.0975 -0.112874,0.87431 -0.553196,1.82014 0.525783,2.46039 0,0 -0.02519,0.0122 -0.103772,0.19795 0.177024,0.30661 0.354046,0.61321 0.507873,0.91918 0,0 0.0061,-0.0224 2.64e-4,0.18639 0.196226,0.37054 0.392443,0.74109 0.738537,1.21971 0.01447,0.0415 0.02678,0.0839 0.04371,0.12441 2.724529,6.51698 6.708635,12.25922 11.008826,17.79871 0.607634,0.78273 1.384895,1.47576 2.197669,2.04853 1.704467,1.20119 3.53323,2.22842 5.215461,3.45775 0.977993,0.7147 1.710415,0.85278 2.627262,-0.33914 0.03522,-2.24938 0.07045,-4.49876 0.115327,-6.97769 -0.0067,-0.45873 -0.01333,-0.91744 -0.01164,-1.59232 -0.0011,-0.36041 -0.0024,-0.7208 0.0076,-1.33068 -0.0055,-5.66734 0.01479,-11.33495 -0.04443,-17.00172 -0.0089,-0.84864 -0.390618,-1.69338 -0.550953,-2.52289 0,0 -0.03708,0.0362 -0.02761,-0.1318 -0.09408,-0.0462 -0.188166,-0.0925 -0.22488,-0.15125 m 12.267049,-11.10964 c 0.07225,-0.0114 0.144492,-0.0228 0.378029,-0.0452 0.04942,0.0215 0.09884,0.043 0.202425,0.25879 0.231188,0.0835 0.459428,0.22975 0.694031,0.2408 2.180802,0.10257 4.362138,0.22149 6.544498,0.25265 1.252757,0.0179 2.507713,-0.11755 3.970194,-0.21239 0.885696,0.16614 1.766568,0.36651 2.657994,0.49188 2.504951,0.35225 5.023757,0.6158 7.518469,1.0274 1.669489,0.27542 2.663274,-0.27126 3.033956,-1.93 0.229362,-1.02634 0.450656,-2.05447 0.839986,-3.18666 0.28391,-1.80885 0.56784,-3.6177 0.9981,-5.57931 0.19876,-2.02877 0.47764,-4.05489 0.54472,-6.088 0.0188,-0.56855 0.14742,-1.61689 -0.97703,-1.68597 0,0 0.001,0.0234 -0.0675,-0.11458 -0.0965,-0.0142 -0.19303,-0.0283 -0.25032,-0.0653 0,0 -0.0102,0.0442 -0.0765,-0.1756 -0.46525,-0.0665 -0.930066,-0.18679 -1.395798,-0.19041 -2.224154,-0.0172 -4.448533,-5.3e-4 -6.672832,-1.5e-4 -4.187827,5.3e-4 -8.375676,0.005 -12.563453,-0.0103 -0.696794,-0.003 -1.409169,-0.21911 -2.086333,-0.12816 -1.202242,0.16147 -2.383033,0.48275 -3.573221,0.7014 0,0 0.03425,0.0104 -0.147328,10e-4 -0.07247,0.12422 -0.144936,0.24843 -0.248547,0.38836 0,0 -0.01783,0.0299 -0.217146,-0.0289 -0.24275,0.70041 -0.694177,1.40118 -0.693021,2.10118 0.0057,3.48963 0.148545,6.97882 0.199552,10.46878 0.01161,0.79504 -0.14945,1.5926 -0.234112,2.41902 0.172964,0.0463 0.495046,0.13255 0.796391,0.21814 0,0 0.0085,-0.0189 0.01783,0.1563 0.115932,0.10541 0.231865,0.21081 0.295386,0.32768 0,0 0.01032,-0.0526 0.04074,0.11973 0.153916,0.0612 0.307838,0.12247 0.442931,0.19325 0,0 2.65e-4,-0.0211 0.02796,0.0744 M 86.23811,134.23742 c 0,0 -0.0074,0.0555 -0.07094,-0.11864 -0.171968,-0.0342 -0.343931,-0.0683 -0.469876,-0.11309 0,0 -0.0099,0.0462 -0.06986,-0.14564 -1.236972,-0.38377 -2.45422,-0.85986 -3.715592,-1.12941 -1.839052,-0.39302 -3.709844,-0.63751 -5.803069,-0.90273 -0.809326,0.18566 -1.618644,0.37131 -2.641586,0.60836 -0.146254,0.4271 -0.418103,0.85368 -0.41987,1.28137 -0.02559,6.17995 -0.02814,12.36015 0.01185,18.53996 0.0033,0.5037 0.35656,1.00512 0.521965,1.5049 0,0 0.0094,-0.0236 0.01093,0.1517 0.100819,0.12306 0.201644,0.24611 0.260821,0.37358 0,0 0.0049,-0.0416 0.0484,0.10294 0.08169,0.0536 0.163378,0.10728 0.209547,0.16459 0,0 0.0037,-0.0355 0.05273,0.14738 0.270824,0.14361 0.541649,0.28721 0.942795,0.5914 1.859108,0.0172 3.718224,0.0344 5.82014,0.0628 3.103306,-0.17048 6.206614,-0.34097 9.528577,-0.51103 0.365109,-5.3e-4 0.730234,-10e-4 1.308446,-5.3e-4 0.4517,-0.0904 0.903418,-0.18074 1.588098,-0.26722 0.715767,-0.19916 1.431518,-0.39832 2.177063,-0.70938 0.04514,-0.0723 0.110281,-0.10807 0.342324,-0.16847 0.03383,-0.0959 0.06768,-0.19186 0.119179,-0.23241 0,0 -0.05801,-0.004 0.143483,-0.0751 0.237437,-0.80904 0.53117,-1.63132 -0.498321,-2.16881 0,0 0.02291,-0.0164 0.09639,-0.20546 -0.260062,-0.48602 -0.520139,-0.97202 -0.754039,-1.45628 0,0 -0.0076,0.0251 0.0066,-0.18454 -0.280861,-0.55178 -0.56174,-1.10354 -0.814033,-1.65782 0,0 -0.0082,0.0275 0.0033,-0.14877 -0.09337,-0.13146 -0.186746,-0.2629 -0.253053,-0.39126 0,0 -0.0085,0.0259 0.003,-0.17289 -0.128852,-0.18535 -0.257688,-0.37069 -0.355597,-0.58677 0,0 -0.01037,0.0424 0.05056,-0.14119 -0.108601,-0.12589 -0.217221,-0.25178 -0.289388,-0.39284 0,0 -0.0073,0.0388 0.04762,-0.1601 -0.244187,-0.39675 -0.488373,-0.79349 -0.807103,-1.37156 -1.669069,-2.91124 -3.338137,-5.82248 -5.050089,-8.88862 -0.08045,-0.0648 -0.160891,-0.12955 -0.21327,-0.19255 0,0 -0.0072,0.0272 -0.0099,-0.15537 -0.175117,-0.12791 -0.350237,-0.25581 -0.646308,-0.41022 -0.07916,-0.0434 -0.123161,-0.10994 -0.193239,-0.34127 -0.09148,-0.0415 -0.182951,-0.083 -0.218607,-0.12894 M 6.8903352,161.18885 c 0,0 0.014341,0.007 -0.1641819,0.0314 -0.1142021,0.18035 -0.2284015,0.36071 -0.3500887,0.51508 0,0 0.027025,-0.001 -0.1333235,0.0679 -0.039034,0.1652 -0.078065,0.33039 -0.1249892,0.46333 0,0 0.033221,2.6e-4 -0.1573503,0.0531 -0.2138892,0.69262 -0.4277757,1.38525 -0.6487054,2.05788 0,0 0.021114,-0.002 -0.1401816,0.0775 -0.019315,0.17168 -0.03864,0.34337 -0.064691,0.47487 0,0 0.038441,0.0135 -0.1539108,0.06 -1.3365665,2.35021 -1.8259795,4.95886 -2.4495971,7.71295 -0.4619784,2.08849 -1.0252842,4.16218 -1.3336402,6.27312 -0.1154589,0.79042 0.3625929,1.66755 0.5293201,2.52468 0,0 0.011536,-0.0437 -0.00997,0.10883 0.069937,0.0677 0.1398799,0.13541 0.1871583,0.2025 0,0 0.00638,-0.0217 0.015372,0.16259 0.1827133,0.11601 0.3654266,0.23203 0.519049,0.35508 0,0 0.00212,-0.0299 0.061831,0.16385 1.1326759,0.8077 2.3563976,0.49065 3.6266199,0.45521 4.4921892,-0.12537 8.9898382,-0.0425 13.4850692,-0.0803 1.115946,-0.009 2.234409,-0.14736 3.342206,-0.29674 0.195022,-0.0263 0.342874,-0.40246 0.589153,-0.54346 0,0 -0.08626,-0.0621 0.07436,-0.047 0.01815,-0.0913 0.03627,-0.18268 0.07767,-0.26738 0,0 0.0057,-0.0235 0.20719,-0.0256 0.06986,-0.38251 0.139721,-0.76505 0.166206,-1.39629 0.536747,-4.79548 1.013214,-9.59879 1.634929,-14.38322 0.325578,-2.50548 -0.03282,-3.07612 -2.544064,-3.13249 -0.305657,-0.007 -0.610539,-0.049 -0.972558,-0.26987 -0.801597,-0.0953 -1.605264,-0.17602 -2.40444,-0.28858 -3.75579,-0.52913 -7.509412,-1.07385 -11.2674406,-1.5864 -0.2491687,-0.034 -0.5284682,0.15295 -0.9546775,0.28979 -0.1123448,0.0101 -0.2246869,0.0201 -0.4673521,0.0759 -0.057732,0.0693 -0.1154642,0.13859 -0.1749769,0.1918 m -5.1482201,32.90697 c -0.04246,0.1139 -0.084923,0.22779 -0.083135,0.36501 0,0 -0.014975,0.0477 -0.1961092,0.18113 0.1221237,1.45721 0.2442395,2.91443 0.4058946,4.48819 0,0 0.00315,0.12304 -0.00844,0.33768 0.076671,0.46343 0.153342,0.92689 0.3165158,1.59148 0.2511584,1.08532 0.5023141,2.17062 0.7606532,3.48285 0.8034761,2.84818 1.6047218,5.697 2.4225594,8.54103 0.021617,0.0752 0.2235121,0.0985 0.3327585,0.20881 0,0 -0.00405,-0.0633 -0.082328,0.0966 0.096041,0.22442 0.1920795,0.44883 0.4540832,0.80024 0.4329668,0.90167 0.8228621,1.8273 1.3078539,2.70006 1.0126609,1.82231 1.3828236,1.96862 3.3565808,1.42761 0.672391,-0.18429 1.324597,-0.44146 1.988378,-0.65811 1.808541,-0.59026 3.604956,-1.22312 5.431935,-1.74977 1.42452,-0.41065 2.887658,-0.68736 4.555144,-1.00819 0.897265,-0.28798 1.794528,-0.57596 2.68514,-0.81925 0,0 -0.04263,-0.015 0.143798,-0.004 0.09556,-0.12629 0.191122,-0.25255 0.321508,-0.34904 0,0 -0.04498,0.009 0.173665,0.007 0.694185,-1.01372 0.557726,-2.87357 -0.348856,-4.06557 -0.09374,-0.99709 -0.157686,-1.99805 -0.286491,-2.99061 -0.508568,-3.91878 -1.06145,-7.83198 -1.541862,-11.75413 -0.118911,-0.97077 -0.560964,-1.43405 -1.501751,-1.46161 -0.835848,-0.0245 -1.672264,-0.0298 -2.678126,-0.17979 -0.787521,-0.0283 -1.574831,-0.0674 -2.362602,-0.0831 -4.29759,-0.0854 -8.5951344,-0.19202 -12.8931451,-0.21836 -0.667295,-0.004 -1.3368999,0.36819 -2.0044225,0.51922 0,0 0.045757,0.0117 -0.1427374,-0.003 -0.1297702,0.17896 -0.2595483,0.35794 -0.397121,0.5086 0,0 0.029101,-0.004 -0.1293469,0.0887 M 37.591349,164.37851 c 0,0 0.02737,0.008 -0.159874,0.0101 -0.200099,0.1966 -0.400209,0.39321 -0.60706,0.538 0,0 0.05174,0.007 -0.118015,0.0571 -0.05289,0.16048 -0.105775,0.32096 -0.166367,0.45775 0,0 0.0249,-5.3e-4 -0.170532,0.0642 -0.29173,1.70505 -0.583459,3.4101 -0.81606,5.32385 -0.295299,3.04261 -0.665496,6.08112 -0.832104,9.13076 -0.04059,0.74283 0.587658,1.52221 1.059754,2.46404 1.15652,0.15012 2.312432,0.42073 3.469685,0.42664 2.907485,0.0149 5.816174,-0.0702 8.723088,-0.15803 0.943208,-0.0285 1.882417,-0.18985 2.96731,-0.32534 0.04794,0.0117 0.09588,0.0233 0.241593,0.19185 0.584761,0.0209 1.169527,0.0419 1.87542,0.0614 0,0 0.121139,-0.002 0.238937,0.13285 0.318887,-0.0447 0.637762,-0.0894 1.157859,-0.0434 2.439096,0.0309 4.879031,0.10271 7.316473,0.0525 0.408847,-0.008 0.806812,-0.54548 1.381059,-0.95106 0.03619,-0.19829 0.07239,-0.39657 0.0954,-0.82091 0.084,-0.95409 0.16799,-1.9082 0.256226,-3.11023 -0.08485,-1.32337 -0.169702,-2.64674 -0.257001,-4.11733 -2.64e-4,-0.0491 -7.94e-4,-0.0982 0.154972,-0.30078 0.03485,-1.0021 0.120002,-2.00561 0.09181,-3.00593 -0.03515,-1.24715 -0.163727,-2.49166 -0.253797,-3.9306 -0.281217,-0.26311 -0.562432,-0.52622 -0.815374,-0.80523 0,0 -0.01177,0.0303 -0.07682,-0.17329 -0.306644,-0.1285 -0.610743,-0.36222 -0.920292,-0.36967 -4.427186,-0.10677 -8.855104,-0.18301 -13.526275,-0.2889 -3.094271,-0.19151 -6.188536,-0.38302 -9.409205,-0.69574 -0.301321,0.0713 -0.602652,0.14251 -0.900809,0.18542 m 57.916942,58.20972 c 0,0 -0.0054,0.0473 -0.06366,-0.14377 -0.450487,-0.22356 -0.882181,-0.58291 -1.354584,-0.64835 -2.784938,-0.38584 -5.579375,-0.70328 -8.61077,-1.06127 -3.147062,-0.0921 -6.294133,-0.18423 -9.671407,-0.23343 -1.743755,0.0243 -2.230265,0.53779 -2.247471,2.33363 -0.01349,1.40855 -0.04838,2.81688 -0.192003,4.06977 -0.04842,-0.46029 -0.09685,-0.92056 -0.145275,-1.38086 0.02551,0.004 0.051,0.007 0.0765,0.0112 0,5.18617 0,10.37232 -0.0024,15.80647 -7.93e-4,2.69928 -0.01048,5.39867 0.01151,8.09776 0.0024,0.27963 0.193471,0.55773 0.450628,0.95026 0.48428,0.39794 1.000341,1.15353 1.445736,1.11394 0.757237,-0.0673 1.586426,-0.50083 2.181092,-1.01619 2.450722,-2.12395 5.099196,-3.96146 7.135175,-6.63086 4.283509,-5.61616 8.027723,-11.49463 10.578036,-18.09336 0.339257,-0.87777 0.446453,-1.84523 0.618567,-2.94531 -0.08578,-0.0764 -0.171582,-0.15275 -0.209775,-0.22964 z"
         id="path2"
         style="fill:#4c68c7;fill-opacity:1;stroke-width:0.264583" />
      <g
         id="g2"
         transform="translate(-3.7818662,3.4744076)">
        <path
           fill="#1E4B74"
           opacity="1"
           stroke="none"
           d="m 180.31274,204.41791 c -0.53661,2.67445 -0.97586,5.37315 -1.6348,8.01711 -0.80086,3.21337 -2.00981,6.28279 -4.04999,9.15834 -0.29632,0.55333 -0.47441,0.9725 -0.65249,1.39168 0,0 -0.01,-0.0358 -0.0673,-0.01 -0.0755,0.12217 -0.0935,0.21811 -0.11156,0.31406 0,0 0.0143,0.0195 -0.0863,0.0125 -0.18655,0.25299 -0.27256,0.51294 -0.35859,0.77289 0,0 -0.0258,0.0466 -0.13997,0.0403 -0.25411,0.33052 -0.39405,0.66726 -0.534,1.00401 0,0 -0.0104,-0.0428 -0.0782,-0.0176 -0.1205,0.18876 -0.17328,0.35238 -0.22604,0.51599 0,0 -0.009,-0.0327 -0.0723,-0.003 -0.11281,0.18848 -0.16247,0.3472 -0.21211,0.50593 0,0 -0.0114,-0.0157 -0.0979,-0.006 -0.13323,0.20905 -0.17998,0.40839 -0.22673,0.60775 0,0 -0.0267,0.0335 -0.13817,0.0355 -0.17746,0.23813 -0.24346,0.47421 -0.30946,0.7103 0,0 -0.008,-0.0295 -0.0663,-0.002 -0.0649,0.12122 -0.0715,0.21533 -0.0781,0.30945 0,0 -0.0102,0.0201 -0.10688,0.0274 -0.15519,0.24822 -0.21366,0.4891 -0.27214,0.72998 0,0 -0.008,-0.0333 -0.0859,-0.0106 -0.47168,1.15975 -0.86505,2.29676 -1.25839,3.43377 0,0 -0.004,0.11921 -0.10552,0.22592 -0.21092,0.33871 -0.40649,0.56693 -0.41686,0.80328 -0.1899,4.32923 -0.35757,8.65944 -0.52996,12.98944 0,0 -0.007,-0.0227 -0.0409,-0.005 -0.0588,0.0348 -0.10762,0.0635 -0.1055,0.0679 0.0244,0.0513 0.0566,0.0989 0.0867,0.14746 -0.14768,0.56366 -0.29535,1.12732 -0.54312,1.84034 -0.12947,0.38929 -0.15884,0.62923 -0.1882,0.86915 0,0 -0.008,-0.0258 -0.0641,0.002 -0.0635,0.11897 -0.0707,0.20992 -0.0779,0.30088 -1e-5,0 0.009,0.029 -0.0901,0.0386 -0.16376,0.24616 -0.22831,0.48279 -0.29288,0.7194 0,0 -0.008,-0.0289 -0.0668,0.001 -0.0761,0.12886 -0.0932,0.22768 -0.11026,0.32652 0,0 0.007,-0.0351 -0.0784,-0.0162 -0.13435,0.1848 -0.18294,0.35073 -0.23151,0.51667 0,0 -0.0104,-0.0377 -0.0867,-0.022 -0.39066,0.53415 -0.70508,1.05264 -1.01951,1.57114 0,0 -0.006,-0.0273 -0.064,1.1e-4 -0.10342,0.11566 -0.1493,0.20393 -0.1952,0.29221 0,0 -0.004,-0.0452 -0.0589,-0.0205 -0.0994,0.11754 -0.14408,0.21036 -0.18873,0.30316 0,0 -0.007,-0.0501 -0.0632,-0.0296 -0.10107,0.11472 -0.14638,0.20889 -0.19168,0.30307 0,0 -0.01,-0.0513 -0.0667,-0.0322 -0.0962,0.11648 -0.13534,0.21387 -0.17448,0.31128 0,0 -0.0147,-0.0469 -0.0758,-0.0346 -0.0997,0.10997 -0.1383,0.20762 -0.17693,0.30528 0,0 -0.007,-0.0406 -0.0834,-0.0387 -0.2111,0.18399 -0.34609,0.36605 -0.48108,0.54811 0,0 -0.0152,-0.0501 -0.0692,-0.0332 -0.10531,0.10738 -0.15663,0.19784 -0.20797,0.28833 0,0 -0.008,-0.0497 -0.0618,-0.0319 -0.10966,0.1029 -0.16562,0.18804 -0.22158,0.27319 0,0 -0.006,-0.0431 -0.0573,-0.0207 -0.10744,0.10311 -0.16338,0.18379 -0.21934,0.26448 0,0 2e-4,-0.027 -0.0782,-0.0246 -0.16325,0.13229 -0.24803,0.26214 -0.3328,0.392 0,0 -0.0311,-0.007 -0.10658,-0.0293 -0.12352,0.0701 -0.17157,0.16246 -0.21959,0.25481 1e-5,0 -0.0182,-0.044 -0.0744,-0.0379 -0.11848,0.0857 -0.18077,0.1653 -0.24304,0.24492 -2e-5,0 2.7e-4,-0.0298 -0.0767,-0.0274 -0.18243,0.12493 -0.28787,0.2475 -0.39332,0.37007 0,-10e-6 -0.0233,-0.0476 -0.0781,-0.0483 -0.11716,0.08 -0.17958,0.16073 -0.24198,0.24143 0,0 -2.6e-4,-0.032 -0.0768,-0.0321 -0.18681,0.11921 -0.29711,0.23844 -0.40741,0.35765 0,0 -0.0152,-0.0371 -0.0903,-0.0544 -0.18068,0.10487 -0.28619,0.22699 -0.39171,0.3491 0,0 -0.008,-0.0192 -0.1061,-0.0528 -0.19562,0.0879 -0.29362,0.20932 -0.39161,0.33078 0,0 -0.0301,10e-4 -0.13203,-0.0433 -0.38564,0.15757 -0.66937,0.35972 -0.95312,0.56185 0,0 -0.0291,-0.004 -0.13975,-0.0566 -1.61302,0.3474 -3.1165,0.74327 -4.61723,1.1494 -0.65409,0.17699 -1.3025,0.37499 -1.95348,0.56346 -4.09437,0.48326 -7.98262,-0.35417 -11.53872,-2.29477 -4.14915,-2.26425 -6.99466,-5.73825 -8.34062,-10.55036 -0.16971,-1.23501 -0.2964,-2.27029 -0.53482,-3.27914 -0.39586,-1.67482 -0.86352,-3.33264 -1.29766,-5.10033 -0.22518,-0.52772 -0.45362,-0.95271 -0.68207,-1.37771 0,0 0.006,-0.0172 0.0556,-0.11868 -0.13164,-0.40891 -0.31267,-0.71634 -0.49372,-1.02374 0,0 0.0303,-8e-4 0.0367,-0.0872 -0.1308,-0.24996 -0.26805,-0.41338 -0.4053,-0.57681 0,0 0.002,-0.0314 0.032,-0.11858 -0.0425,-0.15022 -0.11543,-0.21326 -0.18836,-0.27629 0,0 0.028,-5.3e-4 0.0343,-0.0857 -0.17345,-0.29677 -0.35324,-0.50837 -0.53302,-0.71998 0,0 0.0197,-0.002 0.01,-0.0794 -0.11613,-0.19148 -0.22216,-0.3056 -0.32818,-0.41974 -1.20701,-1.23766 -2.41952,-2.47001 -3.61929,-3.71467 -0.93524,-0.97022 -1.85463,-1.95571 -2.87091,-3.06951 -0.38659,-0.42541 -0.68331,-0.71574 -0.98005,-1.00608 0,0 -0.008,-0.0603 0.0188,-0.15666 -0.069,-0.13576 -0.16466,-0.17515 -0.26036,-0.21455 0,0 0.0398,-0.0106 0.0427,-0.0793 -0.15415,-0.22158 -0.31122,-0.37452 -0.46827,-0.52747 0,0 0.0139,0.001 -0.002,-0.0761 -0.10934,-0.19873 -0.2023,-0.31985 -0.29525,-0.44096 0,0 0.0279,7.9e-4 0.0237,-0.0746 -0.10679,-0.20099 -0.20942,-0.32655 -0.31203,-0.45212 0,0 0.0404,0.001 0.0486,-0.0781 -0.17798,-0.38126 -0.36411,-0.68334 -0.55024,-0.98544 0,0 0.0267,0.002 0.0272,-0.0856 -0.12191,-0.28224 -0.24436,-0.47738 -0.36678,-0.67251 0,0 0.0399,-0.022 0.0672,-0.11194 0.003,-0.34987 0.022,-0.62304 -0.0525,-0.8677 -1.05378,-3.46099 -1.24998,-6.95004 -0.48347,-10.50231 0.33916,-1.57172 0.53316,-3.17476 0.79306,-4.76358 0,0 -0.014,0.0471 0.0611,0.003 0.11035,-0.29783 0.1455,-0.55149 0.18068,-0.80512 0,0 -0.0203,0.0349 0.0681,0.003 0.22939,-0.545 0.37037,-1.05813 0.51135,-1.57128 0,0 0.006,0.0347 0.0688,0.007 0.12859,-0.35433 0.19442,-0.68127 0.26026,-1.0082 0.34891,-0.93766 0.69782,-1.87529 1.19569,-2.91234 0.17783,-0.27132 0.20671,-0.44326 0.23558,-0.61518 0,0 -0.0186,5.3e-4 0.0801,-0.0141 0.3089,-0.71031 0.51908,-1.40591 0.72925,-2.10149 0,0 -0.0181,0.0243 0.0762,-0.002 0.21143,-0.45839 0.32856,-0.8906 0.4457,-1.3228 0,0 -0.0192,0.0207 0.0756,-0.003 0.30378,-0.71312 0.5127,-1.40234 0.72162,-2.09156 0,0 -0.033,-0.008 0.0671,-0.032 0.13532,-0.27682 0.17053,-0.52921 0.20573,-0.78162 -2e-5,0 -0.018,0.0284 0.0729,0.002 0.47359,-1.24769 0.85627,-2.46893 1.23895,-3.69018 0,0 -0.0314,-0.007 0.0686,-0.0306 0.13399,-0.276 0.16795,-0.52803 0.20191,-0.78007 2e-5,0 -0.0253,0.0131 0.0568,-8e-5 0.17102,-0.32853 0.2599,-0.64392 0.34879,-0.95931 1.28915,-3.55983 2.40628,-7.19614 3.94065,-10.64693 0.75721,-1.70294 2.18081,-3.1613 3.49157,-4.55256 1.44371,-1.53238 3.4112,-2.22782 5.62798,-2.75379 2.95625,-0.0732 5.72882,-0.0751 8.5014,-0.077 0.77763,0.26688 1.55527,0.53377 2.51539,0.83004 0.71596,-0.10634 1.24945,-0.24204 1.78294,-0.37774 0,0 -0.007,0.062 0.0461,0.0356 0.0887,-0.1247 0.1243,-0.223 0.15994,-0.32131 0,0 0.0237,0.0497 0.0963,0.0297 0.75968,-2.30461 1.4468,-4.58923 2.2156,-6.90879 0.14456,-0.15031 0.22657,-0.25928 0.26757,-0.38197 2.47487,-7.40454 4.94939,-14.8092 7.4046,-22.22026 0.08,-0.24136 -0.0402,-0.54903 -0.067,-0.82578 1.03355,-2.96199 2.08574,-5.91766 3.09024,-8.88947 0.34037,-1.00694 0.56012,-2.05465 0.94936,-3.20059 0.24284,-0.32958 0.41832,-0.52705 0.49302,-0.75722 2.75715,-8.49563 5.50847,-16.99318 8.24162,-25.49654 0.1139,-0.354358 0.0462,-0.767097 0.063,-1.152646 0,0 -0.022,0.0335 0.0668,-0.006 0.14936,-0.365183 0.20998,-0.690851 0.27059,-1.016508 0,0 0.006,0.0258 0.0793,-0.01746 0.17284,-0.474827 0.27214,-0.906404 0.37145,-1.337977 0,0 -0.03,0.01471 0.0532,-0.0056 0.15121,-0.33139 0.21913,-0.642458 0.28705,-0.953518 0.27936,-0.860735 0.5587,-1.721464 0.99443,-2.672956 0.21485,-0.250645 0.27332,-0.410535 0.3318,-0.570426 0,0 0.006,0.02344 0.0625,0.0011 0.10907,-0.100592 0.16114,-0.178898 0.2132,-0.257197 0,0 -0.001,0.02006 0.0764,0.01326 0.19754,-0.108511 0.31773,-0.210217 0.43793,-0.31193 0,0 0.003,0.03249 0.11472,0.04166 3.32499,0.08787 6.53801,0.1666 9.75102,0.245316 0,-8e-6 -0.0328,0.0069 -0.005,0.06728 0.12714,0.08859 0.22668,0.116763 0.3262,0.144928 0,0 -0.0416,0.01315 -0.0307,0.0783 0.10707,0.10805 0.2032,0.150965 0.29933,0.193873 0,0 -0.0349,0.02566 -0.0364,0.084 0.0767,0.121293 0.15488,0.184235 0.23309,0.247174 0.72153,1.930003 -0.42204,3.576939 -0.81883,5.335325 -0.14767,0.654434 -0.36693,1.292709 -0.70138,2.056372 -0.247,0.30201 -0.38226,0.47538 -0.44004,0.67157 -1.46438,4.97055 -2.92606,9.94192 -4.36194,14.92073 -0.0702,0.2434 0.0982,0.55561 0.15551,0.83577 -1.03408,3.64858 -2.06817,7.29716 -3.23284,11.05905 -0.85168,2.47979 -1.61183,4.83529 -2.28099,7.21637 -0.49441,1.75925 -0.87023,3.55184 -1.29888,5.32958 0,0 -0.004,-0.0286 -0.0363,-0.0144 -0.0585,0.0298 -0.10925,0.0569 -0.10794,0.0597 0.0242,0.0521 0.0547,0.10124 0.0838,0.15103 -0.50628,1.89137 -1.01257,3.78274 -1.6409,5.82307 -0.93835,3.015 -1.75463,5.88107 -2.64121,8.81468 -0.56304,1.78 -1.06941,3.48869 -1.54523,5.20585 -0.61385,2.21529 -1.20327,4.43734 -1.80322,6.65649 -0.15679,0.73148 -0.31356,1.46296 -0.58244,2.33642 -0.13961,0.29474 -0.16709,0.44749 -0.19459,0.60024 -2e-5,0 -0.01,-0.0357 -0.0782,0.008 -0.2393,0.43732 -0.50009,0.81719 -0.56455,1.22787 -0.20232,1.28881 -1.23523,2.56192 -0.13428,3.89579 1.59598,1.41238 3.27528,2.74298 4.76453,4.26012 1.49292,1.5209 2.79618,3.22797 4.21732,5.01491 0.1106,0.22612 0.18647,0.29076 0.26233,0.35539 0,0 -0.0214,-0.002 -0.016,0.084 0.39392,0.61703 0.78246,1.14762 1.17102,1.67819 0,0 -0.0251,0.0294 -0.0365,0.09 0.0637,0.12595 0.13883,0.19125 0.21397,0.25657 0,0 -0.024,-0.002 -0.0273,0.0868 0.20488,0.36736 0.41314,0.64633 0.62138,0.9253 0,0 -0.0342,0.014 -0.0489,0.0901 0.10233,0.19103 0.21938,0.30593 0.33643,0.42084 0,0 -0.0335,0.0314 -0.056,0.10307 0.0966,0.18209 0.21577,0.29252 0.33491,0.40294 0,0 -0.006,0.0123 -0.053,0.11694 0.50877,1.27862 1.06493,2.45259 1.62109,3.62658 0,0 -0.0304,0.0236 -0.0625,0.1143 0.21848,0.92351 0.46912,1.75629 0.71977,2.58909 0,0 0.0241,0.11406 0.0169,0.29036 0.1682,2.4432 0.35004,4.70964 0.51481,6.97733 0.0423,0.58143 0.0307,1.16674 0.0439,1.75029 m -15.15694,-15.06314 c 0,0 -0.003,0.056 -0.0309,-0.1024 -0.0845,-0.0584 -0.16895,-0.11688 -0.21749,-0.17566 0,0 -0.009,0.0348 0.003,-0.14668 -0.12509,-0.0875 -0.25018,-0.17501 -0.37323,-0.29117 0,0 0.0287,-7.9e-4 0.0354,-0.16804 -0.0969,-0.0318 -0.19374,-0.0637 -0.2733,-0.1321 0,0 0.007,0.0399 0.0106,-0.12977 -0.0975,-0.0388 -0.19493,-0.0776 -0.25526,-0.14331 0,0 0.001,0.0458 -0.006,-0.12341 -0.0957,-0.0462 -0.19148,-0.0925 -0.23343,-0.15259 0,0 -0.009,0.0548 -0.0249,-0.11524 -0.0973,-0.0449 -0.19454,-0.0897 -0.24047,-0.15096 0,0 -0.006,0.0536 -0.0237,-0.11482 -0.0956,-0.0486 -0.19124,-0.0972 -0.23019,-0.15948 0,0 -0.005,0.0581 -0.0331,-0.10773 -0.095,-0.0485 -0.19005,-0.0969 -0.22812,-0.15657 0,0 -0.007,0.0577 -0.0371,-0.10808 -0.0963,-0.0452 -0.19261,-0.0903 -0.23238,-0.13618 0,0 -0.0211,0.0524 -0.0319,-0.11468 -0.13933,-0.0745 -0.27867,-0.14905 -0.43894,-0.22138 0,0 6e-5,-0.0211 -0.0374,-0.18763 -0.17258,-0.10896 -0.34516,-0.21792 -0.50094,-0.3343 0,0 -0.004,0.018 -0.0668,-0.1081 -0.0788,-0.0494 -0.15768,-0.0988 -0.20501,-0.14912 0,0 -0.003,0.0314 -0.0569,-0.10907 -0.0856,-0.0487 -0.17123,-0.0975 -0.21289,-0.14806 0,0 -0.004,0.0438 -0.0572,-0.10711 -0.0942,-0.0424 -0.18831,-0.0848 -0.2281,-0.13299 0,0 -0.009,0.0539 -0.0465,-0.10895 -0.0973,-0.0409 -0.19449,-0.0817 -0.23356,-0.12308 0,0 -0.0223,0.0538 -0.0423,-0.12757 -0.15813,-0.0621 -0.31624,-0.1242 -0.45199,-0.19248 0,0 -5.3e-4,0.0232 -0.0556,-0.12055 -0.0913,-0.0417 -0.18264,-0.0834 -0.21938,-0.12851 0,0 -0.008,0.0541 -0.0542,-0.10326 -0.0968,-0.0324 -0.19351,-0.0647 -0.26534,-0.071 0,0 -0.0338,0.0127 -0.0171,-0.18763 -0.33145,-0.14898 -0.66289,-0.29795 -0.97232,-0.45314 0,0 0.001,0.0229 -0.0572,-0.12175 -0.0964,-0.0305 -0.19286,-0.061 -0.23413,-0.0968 0,0 -0.0136,0.0537 -0.053,-0.13695 -0.51829,-0.20266 -1.03655,-0.40535 -1.56088,-0.57102 0,0 -0.0366,0.008 -0.0473,-0.19644 -0.13406,-0.10682 -0.2519,-0.26146 -0.40466,-0.3133 -2.23437,-0.75821 -4.45429,-1.56819 -6.7178,-2.22829 -1.61974,-0.47234 -3.29932,-0.73937 -5.19306,-1.11777 -4.35747,-0.23998 -5.94399,1.25648 -7.10779,5.65466 -0.0973,0.36779 -0.0906,0.78425 -0.041,1.16625 0.26173,2.0143 1.70652,3.07173 3.37719,3.74109 2.09033,0.83753 4.27214,1.44679 6.52376,2.31321 0.50851,0.10899 1.01701,0.21798 1.49211,0.33315 0,0 0.003,-0.0339 0.0765,0.15016 0.51099,0.12799 1.02198,0.25599 1.50933,0.39036 0,0 -1.2e-4,-0.0245 0.059,0.1648 0.42803,0.11999 0.85605,0.23999 1.25821,0.36598 0,0 -0.001,-0.0266 0.0886,0.14704 0.504,0.12872 1.00798,0.25744 1.49571,0.39574 0,0 -2.6e-4,-0.0189 0.0685,0.11676 0.0956,0.0251 0.1911,0.0501 0.2345,0.0762 0,0 0.0202,-0.0481 0.0508,0.13489 0.16351,0.0543 0.32702,0.1086 0.45534,0.1757 0,0 -0.003,-0.0373 0.0623,0.12549 0.10443,0.0496 0.20888,0.0992 0.47281,0.23319 0.24097,0.77558 0.48193,1.55115 0.56324,2.42422 -0.0656,0.34469 -0.13118,0.68935 -0.23699,1.05876 0,0 0.0457,-0.0118 -0.13721,-0.007 -0.0688,0.15592 -0.13766,0.31185 -0.23791,0.58583 -0.0486,0.0752 -0.11768,0.11267 -0.40166,0.10461 -0.29552,0.19153 -0.59103,0.38305 -0.88841,0.54784 0,0 0.0265,0.004 -0.20393,-0.007 -0.83693,-0.19012 -1.67239,-0.38704 -2.51128,-0.56807 -0.61361,-0.13246 -1.23172,-0.244 -1.88772,-0.33684 0,0 -0.0482,-0.007 -0.0299,-0.20912 -0.55599,-0.16296 -1.11196,-0.3259 -1.87424,-0.51523 -0.57575,-0.19365 -1.15152,-0.38729 -1.76586,-0.75571 -1.05447,-0.3452 -2.10893,-0.69038 -3.13426,-1.04115 0,0 -0.003,0.0295 -0.0627,-0.16368 -0.43922,-0.10119 -0.87843,-0.20238 -1.28224,-0.28926 0,0 -0.0276,0.0264 -0.0609,-0.17018 -1.24569,-0.44718 -2.46713,-0.99975 -3.74788,-1.29453 -0.5899,-0.13578 -1.29593,0.2331 -1.94982,0.33603 0,0 0.0358,0.01 -0.14403,-0.002 -0.12935,0.0999 -0.2587,0.19971 -0.38778,0.26259 0,0 0.0358,0.009 -0.14581,5.3e-4 -0.13468,0.16706 -0.26935,0.33414 -0.40288,0.50182 0,0 -5.3e-4,-10e-4 -0.17619,0.0286 -0.11002,0.18061 -0.22003,0.36121 -0.33623,0.51525 0,0 0.0273,-1.1e-4 -0.11757,0.0545 -0.0407,0.0921 -0.0815,0.18413 -0.12349,0.22452 0,0 0.0503,0.0119 -0.14555,0.047 -0.1288,0.34499 -0.25762,0.68996 -0.39658,0.99928 0,0 0.0371,-0.001 -0.12307,0.0682 -0.0547,0.2173 -0.10944,0.43458 -0.18277,0.86918 -0.15095,0.59265 -0.33634,1.17895 -0.44694,1.77903 -0.50063,2.7159 0.32314,4.435 2.57693,5.36164 1.36666,0.56185 2.74653,1.09229 4.12788,1.61737 0.57782,0.21964 1.18369,0.36547 1.76158,0.58498 2.25242,0.85565 4.46342,1.83907 6.75668,2.56334 2.55168,0.80588 3.21816,2.48112 1.50328,4.67352 -0.0273,0.0877 -0.0547,0.17544 -0.0913,0.22615 0,0 0.0379,0.004 -0.11025,0.0337 -0.0589,0.0769 -0.11775,0.15387 -0.17575,0.20945 0,0 0.0202,0.007 -0.15512,0.01 -0.12108,0.10285 -0.24215,0.20568 -0.36637,0.27515 0,0 0.0327,0.007 -0.20824,-0.0221 -1.17151,-0.10343 -2.34303,-0.20687 -3.67931,-0.32341 -0.0366,-0.0412 -0.0731,-0.0824 -0.12865,-0.24248 -0.0754,-0.0837 -0.15083,-0.16748 -0.37305,-0.38796 -0.33256,-0.008 -0.66509,-0.0151 -0.96706,-0.007 0,0 -0.0269,0.0211 -0.0566,-0.17713 -0.69514,-0.20583 -1.39029,-0.41165 -2.08037,-0.58857 0,0 -0.0279,0.009 -0.0462,-0.19059 -1.03434,-0.32648 -2.06869,-0.65295 -3.08124,-0.98541 0,0 -5.3e-4,0.0226 -0.0569,-0.16485 -0.69907,-0.20274 -1.39816,-0.40551 -2.06016,-0.61737 0,0 -7e-5,0.0382 -0.0818,-0.13539 -0.24548,-0.0443 -0.49096,-0.0886 -0.71173,-0.13906 0,0 -7.9e-4,0.0254 -0.0747,-0.14119 -0.17134,-0.008 -0.34266,-0.0166 -0.49664,-0.005 0,0 -0.024,0.0108 -0.0549,-0.19178 -0.24717,-0.0302 -0.49436,-0.0603 -0.76063,-0.0516 0,0 -0.0432,0.004 -0.0308,-0.18161 -0.4021,-0.079 -0.80421,-0.15807 -1.43718,-0.22817 -1.52381,-0.26261 -2.55645,0.24385 -2.89677,1.84369 -0.027,0.12707 -0.0641,0.2649 -0.13849,0.36713 -1.63598,2.24731 0.13993,7.70408 2.79624,8.71774 1.56105,0.59571 2.82964,1.95985 4.22686,2.98237 1.66994,1.22213 3.26677,2.56476 5.0322,3.62779 0.99548,0.5994 2.26643,0.74127 3.45337,1.26296 0.33808,0.0727 0.67614,0.14544 0.98612,0.22594 0,0 -0.005,-0.0287 0.12047,0.14665 2.27557,0.50596 4.51993,0.41638 6.87971,-0.41567 4.16324,-1.61772 7.7578,-4.05473 10.78664,-7.33455 0.0559,-0.12442 0.11173,-0.24884 0.17497,-0.34556 0,0 -0.0286,-0.002 0.14636,-0.0383 0.10779,-0.19354 0.21557,-0.38708 0.33667,-0.53494 0,0 -0.0457,-0.0132 0.12086,-0.0282 0.0197,-0.0965 0.0393,-0.19306 0.0729,-0.31123 0,0 -0.003,-0.0256 0.1937,0.0236 0.10885,-0.26153 0.21769,-0.52307 0.3586,-0.67435 0,0 -0.0241,-0.11207 0.16272,-0.11231 0.0592,-0.16069 0.11836,-0.32135 0.18736,-0.44658 0,0 -0.0367,-0.002 0.11472,-0.0558 0.0242,-0.098 0.0483,-0.19593 0.0604,-0.25705 0,0 -0.0218,-0.0321 0.16704,-0.037 0.0529,-0.16475 0.10579,-0.32952 0.16903,-0.45457 0,0 -0.0404,-0.007 0.11442,-0.0476 0.0109,-0.0931 0.0217,-0.18628 0.0324,-0.31765 0,0 0.006,-0.0378 0.1945,2e-5 0.0316,-0.16057 0.0631,-0.32116 0.17289,-0.47381 0,0 -0.075,-0.0234 0.11716,-0.0313 0.0328,-0.16963 0.0657,-0.33925 0.0901,-0.45929 0,0 -0.009,-0.0494 0.19688,-0.0503 0.12663,-0.34825 0.25326,-0.69651 0.38573,-1.0079 0,0 -0.0341,-0.0152 0.15981,-0.0332 0.46052,-1.14491 0.92102,-2.28982 1.35572,-3.44064 0,0 -0.006,-0.0257 0.1974,-0.0328 0.32353,-1.15054 0.64704,-2.30107 0.9372,-3.65748 1.05485,-4.56807 1.44095,-9.13983 0.19537,-13.81279 -0.14724,-0.22019 -0.29449,-0.44038 -0.41246,-0.66147 0,0 -0.006,0.0288 0.006,-0.17809 -0.35967,-0.6481 -0.71934,-1.29622 -1.05526,-1.94208 0,0 -0.006,0.0231 -0.0125,-0.15038 -0.0996,-0.1231 -0.19924,-0.24619 -0.26859,-0.37002 0,0 -0.008,0.0292 0.009,-0.17 -0.18376,-0.2094 -0.3675,-0.41879 -0.6805,-0.68387 -0.0291,-0.0851 -0.0582,-0.17019 -0.10765,-0.44439 -0.21521,-0.24948 -0.43041,-0.49896 -0.60517,-0.78155 0,0 0.0132,0.0506 0.003,-0.1162 -0.0923,-0.0527 -0.18457,-0.10535 -0.22219,-0.17028 z"
           id="path3"
           style="fill:#4c68c7;fill-opacity:1;stroke-width:0.264583" />
        <g
           id="g1"
           transform="translate(-9.343697,14.682952)">
          <path
             fill="#1F4C76"
             opacity="1"
             stroke="none"
             d="m 178.90856,68.217073 c -1.33149,0.640657 -3.45397,-0.0011 -4.35554,-1.113306 -1.28873,-1.590059 -2.96087,-2.882389 -4.16227,-4.526232 -1.02671,-1.40479 -1.79948,-3.066116 -2.35246,-4.724702 -0.4798,-1.439129 -0.25625,-2.925987 1.08836,-4.058642 0.97978,-0.82531 1.99594,-0.805074 3.12116,-0.542147 2.14643,0.501578 3.648,1.97545 4.72839,3.684855 1.34306,2.124953 2.38165,4.460308 3.38194,6.778082 0.76316,1.768303 0.10996,3.569663 -1.44958,4.502092 z"
             id="path4-1"
             style="fill:#4c68c7;fill-opacity:1;stroke-width:0.264583" />
          <path
             fill="#1E4B74"
             opacity="1"
             stroke="none"
             d="m 199.1004,54.423494 c 1.01608,-1.64833 3.14425,-1.851334 4.69701,-1.239517 1.44992,0.571315 2.22071,2.72583 1.95625,4.640995 -0.54625,3.955542 -2.56166,7.178551 -4.94535,10.216415 -1.17972,1.503542 -2.32921,1.783056 -4.00815,1.068993 -0.32308,-0.247507 -0.53215,-0.367429 -0.7412,-0.487357 0,0 -0.003,-0.02992 0.0138,-0.126648 -0.0746,-0.142772 -0.166,-0.188804 -0.25739,-0.234839 0,0 0.04,-0.02032 0.0377,-0.07629 -0.0758,-0.121287 -0.14931,-0.186594 -0.22281,-0.251899 0,8e-6 0.022,-1.14e-4 0.0241,-0.105825 -0.37015,-1.941208 -0.35626,-3.746783 0.23731,-5.554356 0.33684,-1.025744 0.50636,-2.106432 0.75125,-3.162374 0,0 0.008,0.04136 0.0835,0.01122 0.27998,-0.644806 0.484,-1.259483 0.688,-1.874163 0,0 0.003,0.03627 0.0832,0.01281 0.40611,-0.708012 0.73033,-1.392547 1.05455,-2.077077 0,0 0.007,0.02042 0.0677,-0.0076 0.0952,-0.121173 0.13005,-0.214344 0.16492,-0.307514 0,0 0.008,0.04668 0.0654,0.02352 0.0916,-0.120888 0.12597,-0.218604 0.16039,-0.316325 0,0 -0.0188,0.02283 0.0312,0.02837 0.0862,5.29e-4 0.12232,-0.0046 0.15846,-0.0097 -0.0333,-0.05695 -0.0666,-0.113906 -0.0999,-0.170855 z"
             id="path5-0"
             style="fill:#4c68c7;fill-opacity:1;stroke-width:0.264583" />
          <path
             fill="#1E4B74"
             opacity="1"
             stroke="none"
             d="m 209.42997,99.634227 c -1.80655,-0.749946 -3.73883,-1.2938 -5.38877,-2.300449 -2.21133,-1.349201 -1.49728,-4.28157 0.091,-5.435989 0.28959,-0.210476 0.77354,-0.169725 1.17126,-0.211762 0.7267,-0.07679 1.45595,-0.129675 2.18429,-0.19045 0.17479,-0.01458 0.35841,-0.06012 0.52412,-0.02535 2.46867,0.517919 5.02078,0.804037 7.37946,1.636885 2.74728,0.970063 3.30875,4.012149 1.25799,6.287883 -0.29731,0.158364 -0.41407,0.283348 -0.53086,0.408324 0,0 -0.0357,-0.0016 -0.10975,-0.04443 -0.2005,0.06812 -0.327,0.179019 -0.45347,0.289921 0,0 -0.0307,-0.0374 -0.13732,-0.0671 -1.89852,0.16647 -5.96807,-0.361401 -5.98794,-0.34749 z m 0.66134,-0.912483 c -1.80655,-0.749946 -3.73883,-1.2938 -5.38877,-2.300449 -2.21133,-1.349201 -1.49728,-4.28157 0.091,-5.435989 0.28959,-0.210476 0.77354,-0.169725 1.17126,-0.211762 0.7267,-0.07679 1.45595,-0.129675 2.18429,-0.19045 0.17479,-0.01458 0.35841,-0.06012 0.52412,-0.02535 2.46867,0.517919 5.02078,0.804037 7.37946,1.636885 2.74728,0.970063 3.30875,4.012149 1.25799,6.287883 -0.29731,0.158364 -0.41407,0.283348 -0.53086,0.408324 0,0 -0.0357,-0.0016 -0.10975,-0.04443 -0.2005,0.06812 -0.327,0.179019 -0.45347,0.289921 0,0 -0.0307,-0.0374 -0.13732,-0.0671 -1.87385,-0.194471 -3.6405,-0.366101 -5.40914,-0.514059 -0.18698,-0.01564 -0.3856,0.107707 -0.5788,0.166569 z"
             id="path7-8"
             style="fill:#4c68c7;fill-opacity:1;stroke-width:0.264583"
             sodipodi:nodetypes="sssssssccccccsssssssscccccsss" />
          <path
             fill="#1E4B74"
             opacity="1"
             stroke="none"
             d="m 166.12733,83.677679 c -1.80655,-0.74995 -3.73883,-1.2938 -5.38877,-2.30045 -2.21133,-1.3492 -1.49728,-4.28157 0.091,-5.43599 0.28959,-0.21048 0.77354,-0.16973 1.17126,-0.21176 0.7267,-0.0768 1.45595,-0.12968 2.18429,-0.19045 0.17479,-0.0146 0.35841,-0.0601 0.52412,-0.0254 2.46867,0.51792 5.02078,0.80403 7.37946,1.63688 2.74728,0.97006 3.30875,4.01215 1.25799,6.28788 -0.29731,0.15837 -0.41407,0.28335 -0.53086,0.40833 0,0 -0.0357,-0.002 -0.10975,-0.0444 -0.2005,0.0681 -0.327,0.17902 -0.45347,0.28992 0,0 -0.0307,-0.0374 -0.13732,-0.0671 -1.87385,-0.19447 -3.6058,-0.111653 -5.37444,-0.259613 -0.18698,-0.0156 -0.4203,-0.146737 -0.6135,-0.08788 z m 0.66134,-0.91249 c -1.80655,-0.74994 -3.73883,-1.2938 -5.38877,-2.30045 -2.21133,-1.3492 -1.49728,-4.28157 0.091,-5.43598 0.28959,-0.21048 0.77354,-0.16973 1.17126,-0.21177 0.7267,-0.0768 1.45595,-0.12967 2.18429,-0.19045 0.17479,-0.0146 0.35841,-0.0601 0.52412,-0.0254 2.46867,0.51792 5.02078,0.80404 7.37946,1.63689 2.74728,0.97006 3.30875,4.01215 1.25799,6.28788 -0.29731,0.15837 -0.41407,0.28335 -0.53086,0.40833 0,0 -0.0357,-0.002 -0.10975,-0.0444 -0.2005,0.0681 -0.327,0.17901 -0.45347,0.28992 0,0 -0.0307,-0.0374 -0.13732,-0.0671 -1.89854,0.166435 -4.15959,-1.044476 -5.98794,-0.34749 z"
             id="path7-8-9"
             style="fill:#4c68c7;fill-opacity:1;stroke-width:0.264583"
             sodipodi:nodetypes="ssssscscccccsssssssscscccccss" />
          <path
             fill="#1F4C76"
             opacity="1"
             stroke="none"
             d="m 217.906,77.504085 c -1.09442,0.749655 -2.18887,1.499304 -3.42072,2.207094 -0.22256,0.06087 -0.30773,0.16361 -0.3929,0.26635 0,0 -0.0455,0.0042 -0.13843,-0.02884 -0.15222,0.04829 -0.21148,0.129659 -0.27075,0.211018 3e-5,8e-6 -0.003,-0.03618 -0.0765,-0.0394 -0.20024,0.10106 -0.327,0.205356 -0.45374,0.309639 0,0 -0.003,-0.03927 -0.0744,-0.04242 -0.20029,0.101592 -0.32854,0.206327 -0.45678,0.311052 0,0 0,-0.04188 -0.0712,-0.04848 -0.20109,0.09099 -0.33195,0.188595 -0.46278,0.286192 0,-8e-6 0,-0.02884 -0.10213,-0.03367 -1.08964,0.15624 -2.07839,0.31731 -3.06711,0.478378 -2.36064,-0.426628 -3.14486,-3.804783 -1.61001,-5.559835 2.28713,-2.615311 5.03965,-4.675651 8.37972,-5.742009 0.83762,-0.26742 1.8786,0.102198 2.94632,0.283639 0.31642,0.179535 0.51266,0.254473 0.70887,0.329411 0,0 -0.008,0.0057 -0.0269,0.100261 0.14356,0.245497 0.30599,0.396479 0.46844,0.547455 0,0 -0.0243,5.29e-4 -0.0311,0.103944 -0.003,1.463895 0.003,2.824454 0.007,4.185007 0,0 -0.007,-0.02299 -0.0679,0.0024 -0.0985,0.118776 -0.13607,0.212124 -0.17359,0.305474 0,0 -0.007,-0.04837 -0.063,-0.02418 -0.0894,0.122701 -0.12276,0.221216 -0.15607,0.319718 -3e-5,0 0.003,-0.04287 -0.0776,-0.03592 -0.29324,0.283316 -0.50729,0.559686 -0.72136,0.83606 0,0 -0.0228,-0.04133 -0.0912,-0.04292 -0.21367,0.17045 -0.35901,0.342493 -0.50434,0.514551 z"
             id="path8-7"
             style="fill:#4c68c7;fill-opacity:1;stroke-width:0.264583" />
        </g>
      </g>
    </g>
  </g>
</svg>
