<?xml version="1.0" encoding="UTF-8" standalone="no"?>
<!-- Created with Inkscape (http://www.inkscape.org/) -->

<svg
   width="34.079151mm"
   height="44.629166mm"
   viewBox="0 0 34.079151 44.629166"
   version="1.1"
   id="svg1"
   xmlns:inkscape="http://www.inkscape.org/namespaces/inkscape"
   xmlns:sodipodi="http://sodipodi.sourceforge.net/DTD/sodipodi-0.dtd"
   xmlns="http://www.w3.org/2000/svg"
   xmlns:svg="http://www.w3.org/2000/svg">
  <sodipodi:namedview
     id="namedview1"
     pagecolor="#ffffff"
     bordercolor="#000000"
     borderopacity="0.25"
     inkscape:showpageshadow="2"
     inkscape:pageopacity="0.0"
     inkscape:pagecheckerboard="0"
     inkscape:deskcolor="#d1d1d1"
     inkscape:document-units="mm"
     inkscape:zoom="0.2102413"
     inkscape:cx="394.78447"
     inkscape:cy="561.25984"
     inkscape:window-width="1312"
     inkscape:window-height="449"
     inkscape:window-x="0"
     inkscape:window-y="25"
     inkscape:window-maximized="0"
     inkscape:current-layer="layer1" />
  <defs
     id="defs1" />
  <g
     inkscape:label="Layer 1"
     inkscape:groupmode="layer"
     id="layer1"
     transform="translate(-87.312502,-126.20625)">
    <path
       fill="#000000"
       opacity="1"
       stroke="none"
       d="m 99.413678,169.95228 c -1.262657,-0.39348 -1.91191,-0.71257 -2.696165,-1.19656 -6.683646,-4.12466 -9.355996,-11.83727 -5.546519,-18.69969 0.205315,-0.36985 0.497002,-0.70279 0.542024,-1.2305 -0.960366,-0.21834 -1.953394,0.0136 -2.91227,-0.22546 -0.656914,-0.16375 -1.212673,-0.37701 -1.426159,-1.05563 -0.229558,-0.72971 0.213045,-1.17474 0.743725,-1.57548 1.44941,-1.09453 3.096726,-1.77243 4.826522,-2.24875 0.740624,-0.20394 1.145228,-0.59382 1.428841,-1.32038 0.973781,-2.49464 1.988744,-4.97496 3.194325,-7.37102 0.176342,-0.35048 0.317244,-0.71879 0.576148,-1.31142 -1.140544,0.39544 -1.863345,1.04632 -2.58433,1.6542 -0.937515,0.79045 -1.894347,1.55031 -2.904188,2.24303 -0.330941,0.22701 -0.703424,0.43528 -1.089179,0.11294 -0.328747,-0.2747 -0.285873,-0.65099 -0.175016,-1.00979 0.938982,-3.03912 2.260389,-5.89262 4.555562,-8.14507 3.032598,-2.97615 5.376641,-3.05009 9.213391,-0.75492 5.31836,3.18148 8.45818,8.07074 10.07888,13.9658 0.2692,0.97919 0.69785,1.50788 1.67392,1.79448 1.20149,0.35279 2.36228,0.8663 3.41342,1.57285 0.5175,0.34784 1.14688,0.69762 1.05627,1.43465 -0.0917,0.746 -0.81272,0.90328 -1.38816,1.11877 -1.05966,0.39682 -2.18188,0.47732 -3.31115,0.49495 -0.0978,0.5156 0.27847,0.76755 0.48322,1.07517 3.4964,5.25318 2.84397,12.13013 -1.52719,16.6946 -1.63556,1.70789 -3.53874,2.96363 -5.73664,3.93915 -2.92035,0.79696 -5.08256,1.59004 -10.489282,0.0441 m 8.046682,-33.47799 c 0.35197,-0.38022 0.80681,-0.67655 1.0247,-1.25428 -0.52402,0 -1.01155,-0.0468 -1.48684,0.01 -1.0702,0.12682 -1.78619,-0.21628 -2.11999,-1.30594 -0.11336,-0.37007 -0.24214,-0.83594 -0.7857,-0.95426 -0.49774,0.7222 -0.35211,1.74889 -1.00903,2.3314 -0.64135,0.5687 -1.64836,0.28769 -2.43849,0.78252 0.49609,0.7938 1.51066,1.03413 1.8264,1.83464 0.31549,0.79987 -0.35899,1.63564 -0.18346,2.47868 0.52319,0.16026 0.82509,-0.15575 1.07624,-0.434 0.74684,-0.82742 1.49512,-0.80698 2.35284,-0.17126 0.3822,0.28328 0.80311,0.57473 1.37243,0.57116 0.0561,-0.56308 -0.13321,-1.0672 -0.32875,-1.53497 -0.39031,-0.9337 -0.22238,-1.6686 0.69965,-2.3532 m -1.98697,18.05522 c -0.15389,0.98004 0.22599,1.3845 1.24839,1.31388 1.18106,-0.0816 2.37058,-0.0693 3.55574,-0.0517 0.68734,0.0102 0.98884,-0.24195 0.86627,-0.93984 -0.13061,-0.7436 -0.25931,-1.48766 -0.37586,-2.23354 -0.0882,-0.56425 -0.27885,-0.88927 -0.96955,-0.74705 -0.7368,0.1517 -1.50088,0.17446 -2.25406,0.24235 -2.04194,0.18407 -2.04215,0.18172 -2.07093,2.41595 m -2.44371,-2.08807 c -1.34508,-0.34002 -2.73856,-0.27778 -4.099748,-0.48989 -0.369344,-0.0575 -0.757511,-0.009 -0.873488,0.44522 -0.227652,0.89088 -0.434175,1.78656 -0.455089,2.71421 -0.01006,0.4463 0.167558,0.67615 0.633175,0.67537 1.449191,-0.002 2.8984,0.004 4.3476,0.009 0.45531,0.002 0.6624,-0.22726 0.64307,-0.67466 -0.0368,-0.8522 0.0972,-1.71011 -0.19552,-2.6794 m 4.44551,9.01156 c 0.7181,0.0964 1.43639,0.19127 2.15422,0.28955 0.54755,0.075 0.84699,-0.12549 0.98412,-0.69666 0.23831,-0.99262 0.45518,-1.98014 0.43094,-3.11441 -1.73264,-0.13496 -3.43842,-0.0473 -5.14255,-0.0179 -0.33622,0.006 -0.45512,0.21648 -0.44594,0.52491 0.01,0.32995 0.0251,0.65978 0.0314,0.98979 0.035,1.82022 0.0343,1.82024 1.98779,2.02473 m -7.09481,0.0844 c 2.99516,-0.25138 2.9951,-0.25137 2.8521,-2.82591 -0.005,-0.0987 -0.005,-0.1977 -0.012,-0.29628 -0.0209,-0.31107 -0.18916,-0.49817 -0.49894,-0.49956 -1.63671,-0.007 -3.273471,-0.003 -5.017824,-0.003 0.06765,0.71743 0.06949,1.309 0.186804,1.8767 0.393608,1.90477 0.409375,1.90151 2.48984,1.74851 m 12.8642,-6.75964 c 0.1052,0.3752 -0.1116,0.96981 0.5411,0.9938 1.06929,0.0393 2.14109,0.0106 3.24209,0.0106 -0.001,-1.77814 -0.52458,-3.24885 -1.23525,-4.67876 -0.21657,-0.43574 -0.53679,-0.49664 -0.88827,-0.33402 -0.71661,0.33153 -1.67454,0.10567 -2.16964,0.93032 -0.0406,0.0676 -0.007,0.19856 0.0254,0.28817 0.30522,0.84773 0.29062,1.74947 0.48457,2.78984 m -21.526458,-0.29147 c -0.163635,1.27923 -0.161192,1.28209 1.103756,1.29387 2.514696,0.0234 2.514695,0.0234 2.860114,-2.46822 0.270938,-1.95438 0.264462,-1.92615 -1.749715,-2.38838 -0.647486,-0.14859 -0.996558,0.014 -1.226034,0.6046 -0.357345,0.91965 -0.732534,1.83222 -0.988121,2.95813 m 3.805837,4.5887 c -0.138191,-0.44243 0.204845,-1.16687 -0.67231,-1.17825 -0.858811,-0.0111 -1.717948,-0.0111 -2.576775,-0.001 -0.446938,0.005 -0.673791,0.20672 -0.567734,0.69388 0.289258,1.32866 0.687246,2.61673 1.374227,3.80039 0.168687,0.29064 0.327052,0.55847 0.769456,0.42645 0.747598,-0.22309 1.511123,-0.39282 2.317846,-0.59765 -0.214876,-1.04876 -0.412234,-2.01202 -0.64471,-3.1436 m 20.878091,1.6331 c 0.31913,-0.85967 0.65012,-1.71683 0.57207,-2.79928 -1.08006,0 -2.15275,-0.005 -3.22533,0.004 -0.26591,0.002 -0.40912,0.17114 -0.45535,0.43189 -0.22117,1.24753 -0.44571,2.49447 -0.66746,3.73278 0.18788,0.0908 0.2997,0.1718 0.4237,0.20084 2.67978,0.62753 1.97891,1.2158 3.35237,-1.5698 M 101.04482,150.0166 c 0.4613,0.01 0.92513,-0.007 1.38334,0.0363 0.72275,0.0679 1.03621,-0.21718 0.999,-0.95571 -0.0365,-0.72344 -0.0428,-1.45207 -8e-4,-2.17486 0.0532,-0.91675 -0.44039,-1.0601 -1.18151,-0.93072 -1.3309,0.23236 -3.047653,2.20082 -3.186287,3.68895 0.563994,0.2754 1.177457,0.33061 1.986277,0.33602 m 6.12891,-3.76075 c -0.17936,-0.0824 -0.3511,-0.19601 -0.53935,-0.24184 -1.04957,-0.25553 -1.2781,-0.0672 -1.28387,1.04054 -0.004,0.79187 -0.002,1.58379 -2.6e-4,2.37568 5.2e-4,0.34323 0.0326,0.77724 0.46011,0.73009 1.28176,-0.14134 2.61628,0.0304 3.90399,-0.52166 -0.53711,-1.36789 -1.40183,-2.38695 -2.54056,-3.38281 m -7.07267,19.43861 c 0.74785,1.12276 1.57626,2.14845 3.12531,2.69013 0,-1.61894 0.005,-3.02893 -0.004,-4.43884 -0.002,-0.32257 -0.22182,-0.46612 -0.52365,-0.47555 -1.14936,-0.0359 -2.29266,-0.0143 -3.434347,0.3665 0.04538,0.71023 0.487325,1.18756 0.836507,1.85776 m 5.77757,2.429 c 1.46335,-0.49211 2.3921,-1.57038 3.12082,-2.86104 0.8077,-1.43055 0.79349,-1.45334 -0.83442,-1.74493 -2.40655,-0.43106 -2.67438,-0.21412 -2.6665,2.14862 0.002,0.52668 -0.0282,1.05416 -0.007,1.57978 0.0124,0.30512 -0.12739,0.67449 0.38695,0.87757 m 5.83645,-19.02936 c 0.90058,0.57775 1.54356,-0.23543 2.54774,-0.31755 -1.16965,-1.26061 -2.37139,-1.93207 -3.94391,-2.32684 0.50448,0.95104 0.92004,1.73444 1.39617,2.64439 M 98.115246,146.5671 c -1.50049,0.21025 -2.584477,1.08698 -3.646918,2.13308 1.797384,0.95548 2.048516,0.8823 2.881489,-0.69274 0.245136,-0.46352 0.524465,-0.90895 0.765429,-1.44034 m 15.320484,18.59607 c 0.2578,-0.2461 0.25303,-0.46546 -0.10359,-0.58101 -0.51196,-0.16588 -1.1596,-0.65452 -1.54549,-0.13984 -0.55694,0.7428 -0.87045,1.6681 -1.28783,2.51553 1.21178,-0.30815 2.03441,-0.99871 2.93691,-1.79468 m -18.201718,-0.40085 c 0.395919,0.90071 1.983435,2.02051 3.083015,2.15746 -0.347306,-0.68294 -0.732716,-1.33307 -1.013453,-2.02563 -0.241098,-0.59478 -0.577565,-0.73739 -1.143333,-0.4974 -0.270601,0.11479 -0.556475,0.19357 -0.926229,0.36557 z"
       id="path1"
       style="fill:#1d2c5d;fill-opacity:1;stroke-width:0.198695"
       sodipodi:nodetypes="cssccssssscsssssssssssccsccccsscscscsscsccssssscccsssccsccsscsccccscscsccscssscccssssccscssscccccsccccsscscccsscscccccscccsscscccccccsccssccccssc"
       inkscape:export-filename="../hack/projects/odis-wfsexplorer/public/magicglobe.svg"
       inkscape:export-xdpi="96"
       inkscape:export-ydpi="96" />
  </g>
</svg>
