<?xml version="1.0" encoding="UTF-8" standalone="no"?>
<!-- Created with Inkscape (http://www.inkscape.org/) -->

<svg
   width="88.19574mm"
   height="87.091576mm"
   viewBox="0 0 88.19574 87.091576"
   version="1.1"
   id="svg1"
   inkscape:export-filename="bitmap.svg"
   inkscape:export-xdpi="96"
   inkscape:export-ydpi="96"
   xmlns:inkscape="http://www.inkscape.org/namespaces/inkscape"
   xmlns:sodipodi="http://sodipodi.sourceforge.net/DTD/sodipodi-0.dtd"
   xmlns="http://www.w3.org/2000/svg"
   xmlns:svg="http://www.w3.org/2000/svg">
  <sodipodi:namedview
     id="namedview1"
     pagecolor="#ffffff"
     bordercolor="#000000"
     borderopacity="0.25"
     inkscape:showpageshadow="2"
     inkscape:pageopacity="0.0"
     inkscape:pagecheckerboard="0"
     inkscape:deskcolor="#d1d1d1"
     inkscape:document-units="mm" />
  <defs
     id="defs1" />
  <g
     inkscape:label="Layer 1"
     inkscape:groupmode="layer"
     id="layer1"
     transform="translate(-57.910249,-131.73199)">
    <path
       fill="#000000"
       opacity="1"
       stroke="none"
       d="m 119.06689,188.17888 c 0.41154,-0.23698 0.79455,-0.45051 1.16811,-0.67943 0.37271,-0.22839 0.60301,-0.54436 0.72805,-0.98543 0.45403,-1.6015 1.03786,-3.15059 2.11127,-4.46032 1.10789,-1.35179 2.46822,-2.13533 4.28722,-1.87507 0.33137,0.0474 0.54802,-0.0672 0.60507,-0.45402 0.31369,-2.12706 0.64679,-4.25123 0.97117,-6.37671 0.16834,-1.10303 0.31462,-2.20984 0.50812,-3.30839 0.0681,-0.38641 -0.0563,-0.56368 -0.39564,-0.70348 -1.29855,-0.53501 -2.50958,-1.21846 -3.59554,-2.12166 -2.49676,-2.07659 -4.07279,-4.69562 -4.6144,-7.9 -0.54152,-3.2038 -0.16776,-6.28986 1.50173,-9.12283 2.00026,-3.39423 4.95666,-5.44577 8.88476,-5.98218 6.9771,-0.95278 13.31248,4.04255 14.6194,10.68935 1.34273,6.829 -2.63031,13.30624 -9.35828,14.97229 -0.93559,0.23167 -1.88594,0.32546 -2.83938,0.32243 -0.4856,-0.001 -0.65622,0.17828 -0.72087,0.61516 -0.22494,1.52006 -0.46978,3.03717 -0.70263,4.55607 -0.20099,1.3111 -0.39051,2.624 -0.59773,3.9341 -0.0476,0.30097 0.0478,0.40119 0.34861,0.42171 2.5688,0.17524 3.95381,2.28647 4.34227,4.05185 0.25819,1.17338 -0.0317,2.25181 -0.58349,3.27885 -0.13822,0.25727 -0.19991,0.48548 -0.0742,0.77573 1.53077,3.53334 -1.20237,9.15352 -5.67408,9.42892 -0.34803,0.0214 -0.52705,0.20312 -0.63129,0.55695 -0.57704,1.95846 -1.33923,3.84142 -2.60211,5.46751 -1.67437,2.15589 -3.90041,3.2991 -6.62373,3.54028 -1.90471,0.16869 -3.75245,-0.0298 -5.57118,-0.59718 -0.32183,-0.1004 -0.60712,-0.31672 -1.02703,-0.31648 0.0986,0.76286 0.19862,1.50902 0.29094,2.25613 0.1865,1.50912 0.37512,3.01803 0.55101,4.5284 0.16102,1.38254 0.28696,2.76941 0.46509,4.14962 0.13406,1.03862 -0.66954,1.95991 -1.79408,1.9639 -2.4385,0.009 -4.87704,0.004 -7.31556,0.003 -15.216404,-2.9e-4 -30.432824,-0.0118 -45.649174,0.0156 -1.557258,0.003 -2.33844,-0.78825 -2.138206,-2.47591 0.185018,-1.55941 0.313987,-3.12542 0.472671,-4.688 0.563865,-5.55252 1.776595,-10.91369 4.684955,-15.76869 1.994839,-3.33003 4.507472,-6.19327 7.677168,-8.4586 0.145441,-0.10394 0.292879,-0.20545 0.433796,-0.31527 0.1371,-0.10684 0.267005,-0.22291 0.427687,-0.35818 -1.067982,-0.32737 -2.115307,-0.61995 -3.088048,-1.11185 -2.076506,-1.05004 -3.568195,-2.58859 -4.03406,-4.94456 -0.383342,-1.93864 0.122514,-3.69759 1.169384,-5.32923 1.126393,-1.75557 2.545058,-3.28646 3.804483,-4.93984 0.729618,-0.95784 1.422947,-1.93876 1.957794,-3.02207 0.08381,-0.16975 0.229881,-0.34777 0.102795,-0.54461 -0.126778,-0.19636 -0.328978,-0.0781 -0.495113,-0.0591 -1.484018,0.17044 -2.969209,0.32531 -4.465921,0.2884 -1.12034,-0.0276 -2.236763,-0.10801 -3.328193,-0.385 -0.586889,-0.14895 -1.14736,-0.359 -1.595279,-0.79351 -0.416046,-0.40359 -0.516447,-0.86657 -0.338922,-1.42298 0.340878,-1.06838 1.148237,-1.75564 1.963802,-2.42564 2.654114,-2.18025 5.695627,-3.69556 8.859838,-4.94812 1.115489,-0.44157 1.71146,-1.06424 2.081105,-2.20665 1.089053,-3.36576 2.160137,-6.73625 3.165489,-10.12777 0.05501,-0.18558 0.18715,-0.39475 -0.04254,-0.62013 -0.375141,0.19973 -0.670617,0.4928 -0.946716,0.80291 -0.907657,1.01945 -1.806993,2.0463 -2.711683,3.0684 -0.563511,0.63664 -1.209262,1.18152 -1.913053,1.65417 -0.333414,0.22392 -0.728588,0.54004 -1.108627,0.26025 -0.346971,-0.25545 -0.201213,-0.73333 -0.113172,-1.09795 0.247864,-1.02652 0.618952,-2.01612 1.005885,-2.99795 1.362833,-3.45814 2.990484,-6.77747 5.16989,-9.80489 0.810698,-1.12614 1.712233,-2.17146 2.847082,-2.98582 2.239037,-1.60672 4.571782,-1.63812 6.970017,-0.37702 1.807743,0.95059 3.327915,2.26387 4.694458,3.76175 3.707712,4.06403 6.773159,8.59726 9.651568,13.2652 0.61402,0.99576 1.21061,2.00246 1.80188,3.01194 0.17177,0.29326 0.39071,0.41573 0.73412,0.46605 3.5796,0.5245 7.0544,1.42531 10.33561,2.98347 0.37867,0.17982 0.73782,0.41599 1.0726,0.67008 0.97824,0.74245 1.12572,1.77183 0.39902,2.76867 -0.67048,0.91972 -1.61058,1.50093 -2.61218,1.98831 -1.54504,0.75182 -3.1937,1.17271 -4.8733,1.48732 -0.55037,0.10308 -0.57679,0.14973 -0.41098,0.70819 0.62721,2.11265 1.25659,4.22512 1.70206,6.38588 0.32355,1.56938 0.51058,3.16085 0.74344,4.74484 0.10786,0.73366 0.34232,1.41669 0.81303,2.00536 0.98876,1.23654 2.74581,1.2712 3.77034,0.0627 0.15396,-0.1816 0.28893,-0.36999 0.55603,-0.30185 0.24131,0.0616 0.29947,0.27415 0.3388,0.4881 0.53207,2.89392 -1.05382,5.62453 -3.71317,6.25711 -0.33859,0.0805 -0.67956,0.0488 -1.01904,0.0487 -0.32207,-9e-5 -0.48203,0.12745 -0.4897,0.45794 -0.0139,0.60088 -0.0355,1.20172 -0.0655,1.80199 -0.0127,0.2534 0.0807,0.44262 0.28116,0.58372 2.05555,1.44673 4.22313,2.56532 6.84963,2.36149 0.67245,-0.0522 1.30464,-0.24075 1.95339,-0.51683 M 94.23985,170.34421 c 1.137224,-0.28805 1.904138,-0.94653 2.133411,-2.13901 0.05995,-0.31182 0.246315,-0.39052 0.552947,-0.39983 2.477168,-0.0752 4.563932,0.83367 6.350402,2.4976 0.75124,0.69972 0.88698,0.68322 1.15275,-0.34814 0.38289,-1.48579 0.32739,-3.00348 0.0802,-4.49205 -0.38673,-2.32916 -1.25128,-4.52627 -2.04401,-6.73984 -0.13316,-0.37182 -0.39024,-0.54434 -0.75673,-0.5865 -0.61139,-0.0703 -1.22268,-0.17245 -1.836017,-0.18968 -2.711993,-0.0762 -5.425492,-0.0742 -8.126985,0.20108 -2.561551,0.26102 -5.111084,0.61803 -7.633815,1.15157 -2.048445,0.43324 -4.074937,0.94052 -6.053617,1.63077 -0.285994,0.0998 -0.459132,0.22183 -0.468716,0.57474 -0.04096,1.50863 -0.307495,2.99237 -0.530843,4.48145 -0.260386,1.73601 -0.424117,3.49005 -0.128076,5.22953 0.355461,2.08862 1.617161,3.52624 3.492352,4.46077 0.332541,0.16573 0.49698,0.0629 0.646507,-0.23969 0.201316,-0.40736 0.417849,-0.80949 0.658336,-1.19483 1.590966,-2.54929 3.619408,-4.51906 6.763787,-4.9117 0.883484,-0.11032 1.758216,-0.18916 2.602115,0.41173 0.888447,0.6326 1.955873,0.84436 3.145986,0.60203 m 42.577716,-3.77902 c 4.56952,-1.72646 6.79928,-6.48736 6.01584,-10.92704 -0.40711,-2.30705 -1.50913,-4.24006 -3.24159,-5.79969 -2.25379,-2.02896 -4.87644,-2.98498 -7.92473,-2.55049 -4.8951,0.69773 -8.06672,4.98059 -8.00515,9.78138 0.0233,1.81928 0.55875,3.53425 1.50278,5.1227 2.28175,3.83938 6.99314,6.02921 11.65285,4.37314 M 85.224618,206.9613 c 1.422312,0.78269 2.969482,1.14133 4.568367,1.22654 2.833274,0.151 5.555347,-0.37904 8.164214,-1.49482 2.830831,-1.21072 5.246241,-2.98556 7.198591,-5.36564 2.16027,-2.63356 3.48232,-5.65022 3.95215,-9.02476 0.0567,-0.40751 0.29344,-0.87571 -0.0735,-1.29256 -0.23694,0.12763 -0.26345,0.34793 -0.32774,0.54177 -0.53224,1.60464 -1.12982,3.18513 -1.94263,4.66955 -3.26103,5.95548 -8.029775,9.76248 -14.96444,10.50713 -2.187396,0.23488 -4.225737,-0.15695 -6.167776,-1.16087 -0.308766,-0.1596 -0.356901,-0.30007 -0.154082,-0.59262 1.642424,-2.36904 1.657609,-5.0556 0.05712,-7.47215 -1.132214,-1.7095 -2.667746,-3.0107 -4.304813,-4.19736 -3.112826,-2.25638 -5.789589,-4.87675 -7.286273,-8.51328 -0.05745,-0.13959 -0.112243,-0.31996 -0.3331,-0.28413 -0.157465,0.12164 -0.114088,0.29751 -0.124258,0.45302 -0.10496,1.60497 0.398423,3.03523 1.250747,4.36845 1.272671,1.99073 3.031232,3.50585 4.847489,4.9636 1.471286,1.18088 2.918691,2.38021 4.103903,3.86942 1.523053,1.91371 1.896113,4.69833 0.02423,6.55991 -0.347424,0.34552 -0.251411,0.70044 0.02334,1.03879 0.394864,0.48625 0.887953,0.85401 1.488445,1.20001 m 13.827987,-33.85801 c -0.213801,0.11591 -0.433648,0.22199 -0.640477,0.34923 -2.33747,1.43806 -4.832132,2.07525 -7.578643,1.56433 -1.137346,-0.21158 -2.226947,-0.5647 -3.318273,-0.92833 -0.243811,-0.0812 -0.530104,-0.2565 -0.752776,0.0499 -0.203575,0.28012 -0.084,0.55337 0.04758,0.8228 0.265576,0.54382 0.614735,1.03404 0.996654,1.4975 1.68851,2.04897 3.735573,3.28787 6.517382,2.87515 2.856737,-0.42383 4.872721,-3.05655 5.330428,-5.59473 0.06335,-0.35131 -0.02847,-0.70686 -0.601879,-0.63584 m -10.35161,-24.44986 c -0.172128,-0.42039 -0.329691,-0.84754 -0.520825,-1.25911 -0.164154,-0.35347 -0.12005,-0.65309 0.127516,-0.94373 0.39993,-0.46952 0.798679,-0.94034 1.184648,-1.42127 0.103358,-0.12879 0.282827,-0.26476 0.165513,-0.46685 -0.09885,-0.17027 -0.280696,-0.2057 -0.46823,-0.20303 -0.682149,0.01 -1.367464,-0.0177 -2.04529,0.0412 -0.407245,0.0354 -0.640926,-0.10542 -0.840265,-0.42505 -0.326461,-0.52344 -0.670442,-1.03598 -1.007668,-1.5527 -0.108767,-0.16666 -0.22495,-0.3346 -0.457666,-0.30158 -0.235977,0.0335 -0.288675,0.22551 -0.339632,0.42177 -0.179116,0.68987 -0.385418,1.37346 -0.539376,2.06874 -0.07207,0.32545 -0.250328,0.46074 -0.543476,0.53293 -0.644775,0.15879 -1.285784,0.3328 -1.929953,0.49414 -0.215295,0.0539 -0.420729,0.13031 -0.464825,0.36825 -0.04826,0.26039 0.173385,0.35896 0.35143,0.47024 0.578332,0.36149 1.151748,0.73142 1.739296,1.07731 0.25566,0.1505 0.356238,0.3377 0.343193,0.6318 -0.03018,0.68048 0.03125,1.36429 -0.08391,2.04213 -0.03925,0.23098 -0.0438,0.48032 0.190513,0.60869 0.239932,0.13145 0.3874,-0.0996 0.539997,-0.22272 0.518184,-0.4181 1.030793,-0.84388 1.530417,-1.28389 0.262478,-0.23116 0.516153,-0.27322 0.84596,-0.14794 0.6515,0.24749 1.315467,0.46258 1.977006,0.68288 0.149709,0.0499 0.314486,0.11132 0.446996,-0.0549 0.124542,-0.15618 0.137629,-0.31525 0.05526,-0.49857 -0.08627,-0.19198 -0.151007,-0.39363 -0.256628,-0.65879 m 34.355364,40.0318 c -0.0194,1.51155 0.25761,2.93711 1.23331,4.15057 0.26926,0.33486 0.54062,0.68388 1.034,0.77127 0.0836,-0.21715 0.16888,-0.40056 0.2067,-0.61371 0.20896,-1.17755 0.43338,-2.35235 0.6514,-3.5283 0.10919,-0.58892 0.23716,-1.16576 -0.12369,-1.73907 -0.1478,-0.2348 -0.18584,-0.5529 -0.22385,-0.83974 -0.0893,-0.67395 0.32284,-0.98044 0.95289,-0.72872 0.10544,0.0421 0.20449,0.10485 0.31294,0.13404 0.43561,0.11727 0.88017,0.18343 1.22669,-0.1906 0.50362,-0.54359 0.71341,-1.19507 0.55697,-1.92818 -0.19485,-0.9131 -0.81407,-1.4174 -1.69142,-1.61397 -0.89267,-0.20001 -1.65756,0.0848 -2.21176,0.78867 -1.20723,1.5333 -1.87549,3.2793 -1.92418,5.33774 m 7.59267,-1.9043 c -0.0805,-0.006 -0.198,-0.0508 -0.23584,-0.0137 -0.53495,0.52383 -1.38344,0.75866 -1.52385,1.6495 -0.0427,0.27083 -0.12094,0.53586 -0.17164,0.80565 -0.11472,0.61049 0.03,0.87229 0.62588,1.1071 0.5144,0.2027 1.05301,0.14655 1.58733,0.12016 0.28386,-0.014 0.57681,-0.007 0.72776,0.27854 0.1549,0.29303 0.10311,0.59301 -0.0692,0.87687 -0.39507,0.65107 -1.21542,0.99177 -2.03433,0.82125 -0.34836,-0.0725 -0.69255,-0.16838 -1.03418,-0.26881 -0.2395,-0.0704 -0.37236,0.0102 -0.43411,0.24219 -0.15397,0.5785 -0.28862,1.16015 -0.34919,1.75779 -0.0408,0.40224 0.14939,0.59605 0.52694,0.67603 0.80821,0.17119 1.61397,0.18029 2.39988,-0.0782 1.84927,-0.60827 2.78595,-2.01316 3.13711,-3.82507 0.5125,-2.64452 -1.18642,-3.9749 -3.15261,-4.14924 m -0.005,-3.62863 c 0.0722,0.38035 0.16699,0.75824 0.20871,1.1419 0.0275,0.2524 0.10781,0.36325 0.37044,0.40632 0.65766,0.10786 1.28212,0.33333 1.88645,0.61565 0.68837,0.32157 0.80111,0.26631 1.0215,-0.49394 0.04,-0.13803 0.0682,-0.284 0.0724,-0.42718 0.044,-1.48089 -1.63681,-2.71785 -3.14163,-2.31618 -0.6712,0.17915 -0.70342,0.25191 -0.4179,1.07343 z"
       id="path1"
       style="fill:#1d2c5d;fill-opacity:1;stroke-width:0.0975495" />
    <path
       fill="#000000"
       opacity="1"
       stroke="none"
       d="m 125.8119,136.26261 c 0.39392,0.11268 0.9041,0.0326 0.9345,0.57056 0.0331,0.58558 -0.50554,0.53963 -0.87212,0.63957 -0.59376,0.16189 -1.19854,0.27426 -1.76808,0.52817 -0.60282,0.26874 -0.99923,0.70062 -1.22208,1.31458 -0.22198,0.61155 -0.39013,1.23634 -0.52096,1.87302 -0.0622,0.30258 -0.11463,0.63717 -0.53148,0.64419 -0.42162,0.007 -0.47308,-0.32787 -0.54021,-0.63006 -0.11946,-0.53769 -0.25189,-1.07069 -0.40865,-1.59976 -0.26846,-0.90609 -0.8516,-1.4746 -1.74456,-1.74175 -0.46613,-0.13945 -0.93458,-0.27112 -1.40206,-0.40605 -0.12457,-0.036 -0.25091,-0.0665 -0.37383,-0.10741 -0.27164,-0.0904 -0.44311,-0.25337 -0.43434,-0.56777 0.009,-0.32812 0.25724,-0.39919 0.49167,-0.44665 0.54029,-0.10937 1.07673,-0.2215 1.60575,-0.38543 0.93504,-0.28972 1.52645,-0.90409 1.80558,-1.82085 0.18389,-0.60401 0.33367,-1.21913 0.4781,-1.83411 0.074,-0.31511 0.19486,-0.56365 0.55782,-0.56085 0.36802,0.003 0.419,0.31253 0.48772,0.57524 0.10651,0.40702 0.20798,0.81683 0.28121,1.23082 0.28842,1.63044 1.38466,2.37356 2.89835,2.66759 0.0796,0.0155 0.15942,0.0295 0.27767,0.057 z"
       id="path2"
       style="fill:#1d2c5d;fill-opacity:1;stroke-width:0.0975495" />
    <path
       fill="#000000"
       opacity="1"
       stroke="none"
       d="m 132.89625,137.47106 c 0.48375,-0.0849 0.68004,-0.41331 0.82069,-0.79216 0.12405,-0.33412 0.23012,-0.67523 0.36307,-1.00564 0.0746,-0.18551 0.2008,-0.34592 0.43563,-0.32436 0.21903,0.0201 0.34965,0.16736 0.42005,0.35989 0.13373,0.36568 0.25359,0.73641 0.38083,1.10449 0.1575,0.45565 0.47588,0.67693 0.96037,0.66546 0.29231,-0.007 0.58498,0.003 0.87736,-0.003 0.26852,-0.005 0.48701,0.0856 0.58992,0.34205 0.10795,0.26896 -0.0362,0.47568 -0.23023,0.64004 -0.28473,0.24112 -0.58573,0.46291 -0.87353,0.70054 -0.36149,0.29847 -0.50712,0.65286 -0.30691,1.11784 0.11495,0.26695 0.20589,0.54897 0.26659,0.83298 0.0464,0.2172 0.0764,0.46823 -0.13458,0.63244 -0.2267,0.17646 -0.46353,0.0989 -0.6802,-0.0361 -0.27564,-0.17171 -0.55089,-0.34551 -0.81407,-0.53537 -0.35691,-0.25746 -0.68522,-0.22258 -1.02353,0.0374 -0.2699,0.20742 -0.55002,0.40344 -0.83799,0.58484 -0.19457,0.12256 -0.41529,0.21688 -0.63557,0.0498 -0.22375,-0.16966 -0.24886,-0.40553 -0.18045,-0.65911 0.0886,-0.32853 0.16126,-0.66334 0.2778,-0.9819 0.15091,-0.41252 0.0321,-0.73356 -0.27744,-1.00246 -0.26949,-0.23409 -0.5501,-0.45566 -0.83045,-0.67688 -0.22279,-0.1758 -0.3652,-0.38973 -0.25671,-0.67405 0.10434,-0.27346 0.33784,-0.37388 0.62492,-0.37065 0.34115,0.004 0.68241,-0.002 1.06443,-0.006 z"
       id="path3"
       style="fill:#1d2c5d;fill-opacity:1;stroke-width:0.0975495" />
    <path
       fill="#000000"
       opacity="1"
       stroke="none"
       d="m 142.45943,175.59529 c -1.17337,0.2264 -1.8332,0.90528 -2.02564,2.04726 -0.0348,0.20683 -0.0952,0.43876 -0.35636,0.46351 -0.29727,0.0282 -0.3558,-0.23405 -0.44697,-0.43583 -0.10012,-0.22162 -0.19675,-0.44584 -0.27712,-0.67516 -0.26529,-0.75698 -0.776,-1.21883 -1.57816,-1.34161 -0.0316,-0.005 -0.0617,-0.0199 -0.0926,-0.0298 -0.2387,-0.0761 -0.58391,-0.0649 -0.60023,-0.38952 -0.0179,-0.35524 0.33551,-0.43735 0.59188,-0.46173 1.2418,-0.11804 1.61037,-1.04903 1.94497,-2.02268 0.083,-0.24158 0.10883,-0.55092 0.46342,-0.52304 0.31933,0.0251 0.31509,0.32117 0.38135,0.54885 0.0724,0.24866 0.14609,0.49702 0.22544,0.74351 0.17105,0.53137 0.51439,0.89071 1.05577,1.05494 0.24811,0.0753 0.4895,0.17338 0.73892,0.24339 0.21476,0.0603 0.4295,0.13693 0.44056,0.38517 0.0118,0.26368 -0.21778,0.32961 -0.46518,0.39268 z"
       id="path4"
       style="fill:#1d2c5d;fill-opacity:1;stroke-width:0.0975495" />
    <path
       fill="#000000"
       opacity="1"
       stroke="none"
       d="m 114.38587,144.94933 c -0.13223,-0.25053 -0.0453,-0.40576 0.15176,-0.51199 0.15683,-0.0845 0.31692,-0.16593 0.48264,-0.23058 0.53657,-0.20931 0.89922,-0.55505 0.99711,-1.15134 0.0354,-0.21543 0.0841,-0.48116 0.3833,-0.48969 0.33197,-0.009 0.35978,0.26846 0.41333,0.5047 0.12782,0.56386 0.43837,0.96608 0.99908,1.15726 0.1066,0.0363 0.20931,0.0899 0.30609,0.14826 0.39834,0.24036 0.42816,0.53187 0.0208,0.71837 -0.72406,0.33148 -1.22154,0.8114 -1.44175,1.59861 -0.0928,0.33188 -0.47425,0.34348 -0.54716,0.0207 -0.21877,-0.96879 -0.92761,-1.39144 -1.76516,-1.76428 z"
       id="path5"
       style="fill:#1d2c5d;fill-opacity:1;stroke-width:0.0975495" />
    <path
       fill="#000000"
       opacity="1"
       stroke="none"
       d="m 129.1094,132.07175 c 0.68606,0.26583 0.93941,0.74242 0.74431,1.34344 -0.14991,0.46187 -0.67195,0.71936 -1.23673,0.61001 -0.46768,-0.0906 -0.81097,-0.6003 -0.74146,-1.10097 0.0797,-0.57402 0.52131,-0.89308 1.23388,-0.85248 z"
       id="path6"
       style="fill:#1d2c5d;fill-opacity:1;stroke-width:0.0975495" />
    <path
       fill="#000000"
       opacity="1"
       stroke="none"
       d="m 97.344309,166.04258 c -0.995424,-0.78783 -1.337128,-1.96215 -0.915001,-3.05617 0.382488,-0.9913 1.280119,-1.54104 2.298008,-1.40738 0.97645,0.12822 1.817384,1.04218 1.887694,2.06865 0.0357,0.52085 0.008,1.03403 -0.23219,1.51869 -0.57693,1.1625 -1.752836,1.5163 -3.038511,0.87621 z"
       id="path7"
       style="fill:#1d2c5d;fill-opacity:1;stroke-width:0.0975495" />
    <path
       fill="#000000"
       opacity="1"
       stroke="none"
       d="m 87.827212,163.93002 c 0.693571,0.84506 0.886378,1.75299 0.501326,2.75178 -0.32371,0.83967 -0.970992,1.31372 -1.84587,1.36995 -0.80613,0.0518 -1.492002,-0.28367 -1.948915,-0.98036 -1.010084,-1.54015 -0.240674,-3.49365 1.497531,-3.77923 0.682689,-0.11217 1.27145,0.14488 1.795928,0.63786 z"
       id="path8"
       style="fill:#1d2c5d;fill-opacity:1;stroke-width:0.0975495" />
    <path
       fill="#000000"
       opacity="1"
       stroke="none"
       d="m 131.36624,159.69574 c -0.31321,0.93849 -0.31076,0.91457 -1.36149,0.80678 -0.38532,-0.0395 -0.53652,-0.17501 -0.5769,-0.54706 -0.11863,-1.09288 -0.26183,-2.18309 -0.39593,-3.27429 -0.01,-0.0781 0.002,-0.1656 -0.11578,-0.23423 -0.18545,0.15907 -0.21981,0.40473 -0.29682,0.61899 -0.32912,0.91574 -0.65581,1.83259 -0.96282,2.75587 -0.0915,0.27522 -0.2214,0.41554 -0.52223,0.36237 -0.11058,-0.0195 -0.22706,-0.003 -0.34048,-0.01 -0.7306,-0.0422 -0.81652,-0.16328 -0.88254,-0.89738 -0.1333,-1.48222 -0.30163,-2.96129 -0.45501,-4.44172 -0.04,-0.38641 -0.0775,-0.77309 -0.11751,-1.15951 -0.0264,-0.25447 0.0533,-0.42027 0.34206,-0.39082 0.30582,0.0312 0.61675,0.0484 0.91369,0.12028 0.29072,0.0704 0.23875,0.35521 0.25446,0.56942 0.0758,1.03366 0.13943,2.06822 0.20799,3.10241 0.005,0.0792 -0.003,0.16503 0.0944,0.22267 0.23179,-0.0271 0.21605,-0.2475 0.26705,-0.39672 0.32523,-0.95143 0.64565,-1.90468 0.95055,-2.86277 0.10282,-0.3231 0.22935,-0.53266 0.6172,-0.38655 0.10069,0.0379 0.22601,0.0231 0.33865,0.0146 0.49087,-0.0371 0.63206,0.21609 0.66456,0.67312 0.0699,0.98331 0.19117,1.96309 0.29973,2.9434 0.0156,0.14056 0.0512,0.28878 0.22789,0.42129 0.0902,-0.22972 0.1869,-0.44042 0.2567,-0.65966 0.27053,-0.84958 0.56267,-1.69407 0.78575,-2.55625 0.12365,-0.4779 0.387,-0.58609 0.81114,-0.51563 0.23827,0.0396 0.47638,0.0801 0.80742,0.13584 -0.60597,1.86841 -1.20268,3.70832 -1.81172,5.58537 z"
       id="path9"
       style="fill:#1d2c5d;fill-opacity:1;stroke-width:0.0975495" />
    <path
       fill="#000000"
       opacity="1"
       stroke="none"
       d="m 138.13581,159.87194 c 0.34032,0.20092 0.65767,0.35453 1.03535,0.33394 0.3065,-0.0167 0.52839,-0.14576 0.64641,-0.43137 0.12208,-0.29543 -0.0271,-0.52078 -0.24309,-0.67769 -0.41981,-0.30491 -0.87478,-0.5615 -1.29375,-0.86746 -1.03539,-0.75612 -1.12383,-2.3345 -0.18937,-3.14703 0.83523,-0.72625 2.90796,-0.54307 3.59314,0.31397 0.0915,0.11449 0.14595,0.22532 0.0345,0.34438 -0.19969,0.21329 -0.40628,0.42037 -0.61556,0.62433 -0.16348,0.15933 -0.29789,0.0342 -0.42765,-0.0614 -0.29565,-0.21781 -0.61332,-0.36392 -0.99238,-0.33598 -0.27406,0.0202 -0.52221,0.0905 -0.62139,0.3801 -0.0963,0.28122 0.0159,0.51589 0.23006,0.6938 0.16119,0.1339 0.34107,0.24807 0.52244,0.35428 0.29455,0.1725 0.57931,0.35518 0.85276,0.56216 0.79366,0.60071 0.88684,1.49786 0.60227,2.37242 -0.25145,0.77274 -0.97999,1.20027 -1.91897,1.21927 -0.8027,0.0162 -1.5475,-0.11783 -2.17874,-0.66219 -0.31232,-0.26932 -0.44398,-0.51755 -0.0171,-0.79634 0.0797,-0.052 0.14696,-0.13032 0.20413,-0.20812 0.23898,-0.32522 0.48629,-0.32292 0.77693,-0.0111 z"
       id="path10"
       style="fill:#1d2c5d;fill-opacity:1;stroke-width:0.0975495" />
    <path
       fill="#000000"
       opacity="1"
       stroke="none"
       d="m 133.71079,154.243 c 0.86186,-0.1209 1.66793,0.11857 2.48939,0.15536 0.0479,0.002 0.0945,0.0239 0.14261,0.0311 0.869,0.12985 0.85531,0.12826 0.76541,0.99751 -0.0323,0.31243 -0.18239,0.38463 -0.44819,0.35435 -0.41863,-0.0477 -0.83997,-0.0799 -1.25473,-0.15053 -0.32423,-0.0552 -0.43206,0.0535 -0.45358,0.37581 -0.0798,1.19545 -0.0887,1.19129 1.14857,1.27401 0.21003,0.014 0.50794,-0.0956 0.58473,0.20489 0.0902,0.35281 -0.0392,0.70736 -0.14043,1.04457 -0.0381,0.1268 -0.22922,0.0813 -0.3565,0.0656 -0.33739,-0.0418 -0.67514,-0.0822 -1.01104,-0.13421 -0.30785,-0.0477 -0.49477,0.0173 -0.52128,0.38189 -0.0422,0.58043 -0.13837,1.1569 -0.18204,1.73727 -0.0227,0.30188 -0.14737,0.39155 -0.43453,0.36016 -1.05313,-0.11513 -1.09211,-0.11442 -0.99608,-1.07304 0.18703,-1.8669 0.42178,-3.72902 0.66769,-5.62475 z"
       id="path11"
       style="fill:#1d2c5d;fill-opacity:1;stroke-width:0.0975495" />
  </g>
</svg>
