<svg version="1.1" id="Layer_1" xmlns="http://www.w3.org/2000/svg" xmlns:xlink="http://www.w3.org/1999/xlink" x="0px" y="0px"
	 width="100%" viewBox="0 0 1024 1024" enable-background="new 0 0 1024 1024" xml:space="preserve">
<path fill="#000000" opacity="1.000000" stroke="none" 
	d="
M672.451294,644.405884 
	C676.670105,641.976624 680.596375,639.787720 684.425842,637.440918 
	C688.246582,635.099670 690.607361,631.860596 691.889221,627.339172 
	C696.543518,610.921875 702.528503,595.041870 713.532227,581.615540 
	C724.889465,567.758118 738.834473,559.725891 757.481384,562.393860 
	C760.878235,562.879883 763.099182,561.704651 763.684021,557.739563 
	C766.899719,535.934753 770.314392,514.159424 773.639648,492.370697 
	C775.365356,481.063354 776.864929,469.717255 778.848511,458.455902 
	C779.546265,454.494720 778.271240,452.677490 774.792725,451.244293 
	C761.481079,445.759796 749.066589,438.753632 737.934204,429.494751 
	C712.339417,408.207245 696.183228,381.359161 690.631042,348.510376 
	C685.079834,315.667694 688.911316,284.031891 706.025635,254.990601 
	C726.530640,220.195679 756.837219,199.164948 797.104980,193.666077 
	C868.628540,183.898941 933.573669,235.107010 946.971130,303.244690 
	C960.735779,373.250000 920.007324,439.649384 851.037720,456.728363 
	C841.446777,459.103333 831.704529,460.064789 821.930664,460.033630 
	C816.952698,460.017792 815.203613,461.861328 814.540894,466.339874 
	C812.234985,481.922302 809.725098,497.474396 807.338135,513.044983 
	C805.277649,526.485291 803.334961,539.944031 801.210693,553.374146 
	C800.722656,556.459473 801.700256,557.486816 804.784302,557.697205 
	C831.117554,559.493591 845.315613,581.136169 849.297729,599.233459 
	C851.944458,611.262024 848.973083,622.317139 843.316284,632.845581 
	C841.899353,635.482849 841.266907,637.822266 842.555908,640.797668 
	C858.248169,677.018677 830.230164,734.632141 784.389832,737.455322 
	C780.822144,737.675049 778.987000,739.537537 777.918335,743.164734 
	C772.002991,763.241333 764.189697,782.543823 751.243591,799.213196 
	C734.079346,821.313660 711.259827,833.032898 683.342529,835.505310 
	C663.816956,837.234558 644.875488,835.199402 626.231384,829.383484 
	C622.932251,828.354309 620.007690,826.136719 615.703003,826.139160 
	C616.714050,833.959412 617.739197,841.608459 618.685608,849.267151 
	C620.597351,864.737488 622.530945,880.205566 624.334106,895.688721 
	C625.984680,909.861389 627.275696,924.078369 629.101807,938.227234 
	C630.476013,948.874268 622.238159,958.318604 610.710327,958.359558 
	C585.712830,958.448364 560.714905,958.395508 535.717102,958.395020 
	C379.730927,958.391907 223.744553,958.273682 67.758881,958.555237 
	C51.795139,958.584045 43.787094,950.474670 45.839737,933.174133 
	C47.736385,917.188416 49.058475,901.134949 50.685177,885.116577 
	C56.465462,828.196716 68.897377,773.238342 98.711525,723.468811 
	C119.160988,689.332031 144.918457,659.980347 177.411606,636.758118 
	C178.902557,635.692566 180.413971,634.651978 181.858536,633.526245 
	C183.263977,632.431030 184.595657,631.241150 186.242844,629.854492 
	C175.294754,626.498535 164.558426,623.499207 154.586685,618.456665 
	C133.300034,607.692444 118.008438,591.920471 113.232765,567.769043 
	C109.303055,547.895691 114.488678,529.864380 125.220352,513.138123 
	C136.767212,495.141388 151.310211,479.447937 164.220825,462.498871 
	C171.700272,452.679871 178.807709,442.624268 184.290527,431.519073 
	C185.149658,429.778961 186.647079,427.953949 185.344299,425.936157 
	C184.044678,423.923218 181.971893,425.135162 180.268814,425.330750 
	C165.055862,427.077911 149.830887,428.665558 134.487808,428.287201 
	C123.002991,428.003998 111.558327,427.179962 100.369881,424.340454 
	C94.353577,422.813568 88.608078,420.660309 84.016380,416.206055 
	C79.751411,412.068726 78.722183,407.322601 80.542023,401.618835 
	C84.036430,390.666626 92.312820,383.621399 100.673317,376.753174 
	C127.881142,354.401550 159.060272,338.867767 191.497192,326.027557 
	C202.932266,321.500946 209.041687,315.117798 212.830994,303.406799 
	C223.995071,268.903717 234.974960,234.352203 245.281006,199.585144 
	C245.844925,197.682739 247.199524,195.538498 244.844940,193.228073 
	C240.999298,195.275467 237.970322,198.279846 235.139984,201.458786 
	C225.835419,211.909363 216.616150,222.435822 207.342010,232.913544 
	C201.565353,239.439911 194.945633,245.025528 187.730942,249.870773 
	C184.313049,252.166168 180.262054,255.406830 176.366196,252.538605 
	C172.809326,249.919983 174.303528,245.021103 175.206055,241.283310 
	C177.746948,230.760269 181.551041,220.615677 185.517563,210.550812 
	C199.488220,175.100784 216.173584,141.073685 238.515076,110.039055 
	C246.825699,98.494743 256.067505,87.779030 267.701050,79.430862 
	C290.653839,62.960083 314.567261,62.638138 339.152008,75.565895 
	C357.683533,85.310600 373.267090,98.773293 387.275787,114.128304 
	C425.284241,155.789459 456.708710,202.260498 486.215851,250.112396 
	C492.510254,260.320129 498.625946,270.640015 504.687195,280.988312 
	C506.448090,283.994659 508.692505,285.250061 512.212830,285.765900 
	C548.907898,291.142700 584.528748,300.377045 618.165100,316.350037 
	C622.046875,318.193390 625.728638,320.614471 629.160522,323.219177 
	C639.188660,330.830200 640.700439,341.382538 633.250916,351.601318 
	C626.377686,361.029480 616.740540,366.987610 606.473022,371.983826 
	C590.634460,379.690948 573.733826,384.005524 556.515869,387.230591 
	C550.873901,388.287384 550.603149,388.765533 552.302795,394.490479 
	C558.732544,416.147644 565.184387,437.802948 569.750977,459.953339 
	C573.067749,476.041321 574.984985,492.355743 577.372131,508.593536 
	C578.477783,516.114380 580.881348,523.116333 585.706665,529.150818 
	C595.842590,541.826904 613.854492,542.182129 624.357117,529.793762 
	C625.935425,527.932068 627.319031,526.000916 630.057129,526.699402 
	C632.530762,527.330444 633.127014,529.509766 633.530212,531.703003 
	C638.984497,561.369080 622.727234,589.361145 595.465759,595.845825 
	C591.994812,596.671448 588.499451,596.346069 585.019409,596.345154 
	C581.717773,596.344238 580.078064,597.651611 579.999451,601.039612 
	C579.856567,607.199280 579.636047,613.358643 579.327759,619.512085 
	C579.197571,622.109802 580.154785,624.049500 582.209900,625.495911 
	C603.281799,640.326599 625.502075,651.793457 652.426819,649.703979 
	C659.320251,649.169006 665.800842,647.236084 672.451294,644.405884 
M417.944672,461.579407 
	C429.602570,458.626495 437.464355,451.876312 439.814667,439.652008 
	C440.429230,436.455414 442.339691,435.648651 445.483032,435.553253 
	C470.876953,434.782562 492.268799,444.099304 510.582184,461.156647 
	C518.283325,468.329559 519.674744,468.160461 522.399292,457.587738 
	C526.324280,442.356689 525.755371,426.798492 523.221619,411.538940 
	C519.257080,387.662323 510.394501,365.139221 502.268005,342.447601 
	C500.902954,338.635925 498.267639,336.867401 494.510651,336.435181 
	C488.243134,335.714142 481.976746,334.667389 475.689301,334.490753 
	C447.888153,333.709747 420.071564,333.730164 392.378052,336.552063 
	C366.119110,339.227814 339.983368,342.887695 314.122375,348.357086 
	C293.123383,352.798248 272.349426,357.998444 252.065598,365.074341 
	C249.133820,366.097076 247.358948,367.348450 247.260712,370.966125 
	C246.840836,386.431427 244.108521,401.641510 241.818939,416.906372 
	C239.149673,434.702545 237.471237,452.683472 240.506012,470.515259 
	C244.149902,491.926086 257.083832,506.663330 276.306763,516.243469 
	C279.715698,517.942383 281.401398,516.888062 282.934235,513.786316 
	C284.997955,509.610352 287.217682,505.488098 289.682953,501.537842 
	C305.992249,475.404633 326.786194,455.212097 359.019806,451.187164 
	C368.076569,450.056274 377.043610,449.248047 385.694580,455.407867 
	C394.802216,461.892792 405.744598,464.063538 417.944672,461.579407 
M854.416809,422.839966 
	C901.259827,405.141632 924.117554,356.336823 916.086304,310.824738 
	C911.912964,287.174774 900.616028,267.359131 882.856262,251.371124 
	C859.752136,230.571838 832.866882,220.771454 801.618286,225.225525 
	C751.437744,232.378113 718.924866,276.282532 719.555969,325.496307 
	C719.795105,344.146118 725.283813,361.726532 734.961243,378.010010 
	C758.351929,417.368286 806.649292,439.816589 854.416809,422.839966 
M325.527802,836.948059 
	C340.108185,844.971558 355.968506,848.648071 372.358978,849.521545 
	C401.403412,851.069458 429.307892,845.635925 456.051880,834.197876 
	C485.071198,821.786560 509.832092,803.592285 529.846008,779.193665 
	C551.991333,752.196594 565.543945,721.272156 570.360168,686.679138 
	C570.941772,682.501709 573.368286,677.702087 569.606812,673.428894 
	C567.177917,674.737244 566.906189,676.995544 566.247131,678.982605 
	C560.791016,695.432129 554.665161,711.634033 546.332825,726.851135 
	C512.903442,787.901855 464.018127,826.928162 392.929565,834.561646 
	C370.506165,836.969482 349.610748,832.952759 329.702545,822.661377 
	C326.537323,821.025269 326.043884,819.585266 328.123016,816.586365 
	C344.959808,792.300842 345.115479,764.760437 328.708557,739.987915 
	C317.102020,722.463440 301.360992,709.124695 284.579102,696.960022 
	C252.668945,673.829407 225.228943,646.967529 209.886154,609.688721 
	C209.297211,608.257751 208.735519,606.408813 206.471481,606.776123 
	C204.857285,608.023071 205.301941,609.825867 205.197693,611.420044 
	C204.121719,627.872925 209.281998,642.534790 218.019333,656.201904 
	C231.065720,676.609192 249.093063,692.140991 267.711853,707.084656 
	C282.794281,719.190063 297.631897,731.484680 309.781738,746.750793 
	C325.394836,766.368591 329.219147,794.914246 310.030182,813.997681 
	C306.468658,817.539673 307.452911,821.178040 310.269470,824.646484 
	C314.317291,829.631104 319.372040,833.401123 325.527802,836.948059 
M467.281067,489.863220 
	C465.089355,491.051422 462.835663,492.138885 460.715424,493.443268 
	C436.753571,508.184998 411.180328,514.716980 383.025330,509.479462 
	C371.366180,507.310577 360.196472,503.690643 349.009094,499.963013 
	C346.509735,499.130188 343.574890,497.333557 341.292236,500.474457 
	C339.205353,503.345978 340.431183,506.147095 341.780029,508.909149 
	C344.502502,514.483948 348.081787,519.509277 351.996918,524.260254 
	C369.306152,545.264587 390.290985,557.964844 418.807831,553.733948 
	C448.092773,549.389160 468.759003,522.400696 473.451050,496.381317 
	C474.100433,492.780029 473.159241,489.135193 467.281067,489.863220 
M361.164734,239.223251 
	C359.400208,234.913742 357.785004,230.534882 355.825653,226.315826 
	C354.142883,222.692337 354.595001,219.620926 357.132843,216.641510 
	C361.232605,211.828323 365.320251,207.001846 369.276886,202.071732 
	C370.336426,200.751541 372.176208,199.357651 370.973602,197.286041 
	C369.960266,195.540527 368.096130,195.177368 366.173676,195.204666 
	C359.180847,195.303940 352.155548,195.022919 345.207031,195.627182 
	C341.032288,195.990219 338.636780,194.546448 336.593323,191.269943 
	C333.246704,185.903976 329.720490,180.649902 326.263519,175.352890 
	C325.148529,173.644394 323.957520,171.922836 321.571899,172.261276 
	C319.152863,172.604492 318.612640,174.573105 318.090271,176.584976 
	C316.254120,183.656952 314.139282,190.664551 312.561035,197.791992 
	C311.822266,201.128250 309.994873,202.515091 306.989746,203.255188 
	C300.380035,204.882965 293.808929,206.666824 287.205444,208.320679 
	C284.998413,208.873428 282.892456,209.656555 282.440430,212.095673 
	C281.945679,214.765045 284.217834,215.775436 286.042999,216.916260 
	C291.971588,220.621933 297.849792,224.414093 303.872864,227.959885 
	C306.493683,229.502747 307.524719,231.421738 307.390991,234.436600 
	C307.081635,241.412369 307.711395,248.422195 306.530853,255.370850 
	C306.128540,257.738739 306.081848,260.294708 308.483826,261.610657 
	C310.943420,262.958160 312.455139,260.589722 314.019440,259.327576 
	C319.331451,255.041550 324.586304,250.676773 329.708038,246.166153 
	C332.398743,243.796509 334.999207,243.365326 338.380127,244.649612 
	C345.058777,247.186600 351.865234,249.391602 358.646790,251.649948 
	C360.181488,252.161041 361.870636,252.791016 363.229034,251.087509 
	C364.505737,249.486450 364.639893,247.855850 363.795471,245.976624 
	C362.911133,244.008591 362.247467,241.941391 361.164734,239.223251 
M713.348022,649.596741 
	C713.148987,665.091919 715.988831,679.705566 725.990967,692.144958 
	C728.751099,695.577698 731.532898,699.155579 736.590637,700.051392 
	C737.447571,697.825378 738.321899,695.945190 738.709595,693.760132 
	C740.851685,681.688843 743.152222,669.645752 745.387146,657.590942 
	C746.506470,651.553711 747.818359,645.640442 744.119202,639.763367 
	C742.604126,637.356384 742.214172,634.095459 741.824463,631.155090 
	C740.908752,624.246277 745.133972,621.104370 751.592773,623.684814 
	C752.673645,624.116699 753.688965,624.759583 754.800781,625.058899 
	C759.266296,626.260986 763.823547,626.939209 767.375732,623.105042 
	C772.538452,617.532532 774.689087,610.854126 773.085388,603.338806 
	C771.087952,593.978455 764.740173,588.808777 755.746277,586.793762 
	C746.595337,584.743408 738.754333,587.662781 733.073181,594.878479 
	C720.697571,610.596680 713.847168,628.495239 713.348022,649.596741 
M791.181946,630.075378 
	C790.356934,630.008972 789.152161,629.554626 788.764221,629.934509 
	C783.280396,635.304443 774.582336,637.711670 773.142944,646.843872 
	C772.705322,649.620178 771.903259,652.337036 771.383484,655.102783 
	C770.207458,661.361023 771.690979,664.044800 777.799500,666.451843 
	C783.072754,668.529724 788.594116,667.954163 794.071533,667.683594 
	C796.981384,667.539856 799.984497,667.611877 801.531921,670.538940 
	C803.119873,673.542847 802.588928,676.618042 800.823059,679.527954 
	C796.773071,686.202148 788.363586,689.694702 779.968811,687.946716 
	C776.397705,687.203186 772.869263,686.220642 769.367188,685.191101 
	C766.912048,684.469299 765.550110,685.295410 764.917053,687.673828 
	C763.338684,693.604126 761.958313,699.566772 761.337463,705.693298 
	C760.919617,709.816772 762.868896,711.803528 766.739197,712.623413 
	C775.024292,714.378296 783.284302,714.471558 791.340820,711.821533 
	C810.298096,705.586060 819.900085,691.184265 823.499878,672.609985 
	C828.753723,645.500488 811.337769,631.862549 791.181946,630.075378 
M791.126526,592.877625 
	C791.866943,596.776611 792.838379,600.650513 793.266052,604.583496 
	C793.547424,607.170837 794.371155,608.307190 797.063477,608.748718 
	C803.805298,609.854370 810.206665,612.165771 816.401855,615.059814 
	C823.458435,618.356323 824.614197,617.789856 826.873413,609.996399 
	C827.283569,608.581421 827.572388,607.085083 827.615967,605.617310 
	C828.066711,590.436401 810.836670,577.756104 795.410522,581.873657 
	C788.529907,583.710205 788.199707,584.456116 791.126526,592.877625 
z"/>
<path fill="#000000" opacity="1.000000" stroke="none" 
	d="
M741.595703,112.202484 
	C745.633850,113.357605 750.863770,112.536324 751.175476,118.051430 
	C751.514648,124.054298 745.993103,123.583214 742.235168,124.607788 
	C736.148376,126.267296 729.948669,127.419281 724.110229,130.022079 
	C717.930603,132.777008 713.866943,137.204346 711.582397,143.498169 
	C709.306946,149.767197 707.583191,156.172043 706.242065,162.698853 
	C705.604675,165.800644 705.066956,169.230591 700.793762,169.302521 
	C696.471619,169.375259 695.944092,165.941422 695.255920,162.843704 
	C694.031311,157.331650 692.673706,151.867783 691.066772,146.444260 
	C688.314697,137.155701 682.336853,131.327835 673.182983,128.589264 
	C668.404602,127.159706 663.602356,125.809959 658.810181,124.426674 
	C657.533142,124.058052 656.238037,123.744698 654.977966,123.325630 
	C652.193298,122.399490 650.435547,120.728340 650.525452,117.505287 
	C650.619263,114.141747 653.162476,113.413139 655.565613,112.926666 
	C661.104309,111.805466 666.603394,110.655937 672.026550,108.975540 
	C681.611755,106.005501 687.674500,99.707481 690.535828,90.309586 
	C692.420959,84.117836 693.956360,77.812134 695.436951,71.507790 
	C696.195557,68.277618 697.434509,65.729759 701.155273,65.758453 
	C704.927917,65.787552 705.450500,68.962250 706.155029,71.655319 
	C707.246826,75.827774 708.286987,80.028778 709.037720,84.272743 
	C711.994385,100.986649 723.232178,108.604568 738.749268,111.618675 
	C739.564941,111.777130 740.383423,111.921280 741.595703,112.202484 
z"/>
<path fill="#000000" opacity="1.000000" stroke="none" 
	d="
M814.218689,124.590500 
	C819.177673,123.719887 821.189941,120.353622 822.631775,116.469994 
	C823.903442,113.044785 824.990784,109.548027 826.353638,106.160973 
	C827.118835,104.259216 828.412048,102.614883 830.819336,102.835892 
	C833.064697,103.042023 834.403625,104.551468 835.125366,106.525162 
	C836.496216,110.273827 837.724976,114.074242 839.029297,117.847481 
	C840.643921,122.518463 843.907715,124.786850 848.874268,124.669220 
	C851.870789,124.598244 854.870972,124.695312 857.868225,124.641853 
	C860.620850,124.592766 862.860657,125.519623 863.915649,128.148254 
	C865.022217,130.905411 863.544922,133.024536 861.555481,134.709396 
	C858.636719,137.181198 855.551086,139.454803 852.600830,141.890747 
	C848.895081,144.950424 847.402222,148.583359 849.454590,153.350006 
	C850.632935,156.086487 851.565247,158.977539 852.187439,161.888977 
	C852.663330,164.115601 852.970337,166.688904 850.807800,168.372238 
	C848.483887,170.181213 846.056152,169.386185 843.835022,168.002457 
	C841.009399,166.242188 838.187744,164.460510 835.489746,162.514221 
	C831.831055,159.874954 828.465454,160.232513 824.997437,162.897720 
	C822.230591,165.024094 819.359070,167.033493 816.406982,168.893082 
	C814.412476,170.149445 812.149841,171.116287 809.891663,169.403961 
	C807.597900,167.664703 807.340576,165.246826 808.041870,162.647354 
	C808.950378,159.279449 809.694946,155.847275 810.889648,152.581635 
	C812.436646,148.352890 811.218750,145.061798 808.045532,142.305283 
	C805.282959,139.905533 802.406311,137.634155 799.532410,135.366394 
	C797.248596,133.564316 795.788696,131.371262 796.900879,128.456635 
	C797.970459,125.653343 800.364136,124.623955 803.307007,124.657005 
	C806.804199,124.696297 810.302490,124.634659 814.218689,124.590500 
z"/>
<path fill="#000000" opacity="1.000000" stroke="none" 
	d="
M912.252686,515.409119 
	C900.224243,517.730042 893.460205,524.689331 891.487488,536.396057 
	C891.130188,538.516296 890.511475,540.893860 887.834351,541.147522 
	C884.786987,541.436096 884.186951,538.748230 883.252380,536.679810 
	C882.226013,534.407959 881.235413,532.109436 880.411560,529.758606 
	C877.691956,521.998657 872.456604,517.264160 864.233582,516.005554 
	C863.909119,515.955811 863.601013,515.801636 863.283875,515.700562 
	C860.836914,514.920471 857.298035,515.035767 857.130798,511.707520 
	C856.947815,508.065887 860.570129,507.224152 863.198242,506.974304 
	C875.928223,505.764221 879.706421,496.220428 883.136475,486.239349 
	C883.987488,483.762848 884.252136,480.591797 887.887146,480.877563 
	C891.160645,481.134857 891.117188,484.169983 891.796387,486.503998 
	C892.538208,489.052979 893.294006,491.598999 894.107422,494.125793 
	C895.860901,499.572968 899.380554,503.256592 904.930298,504.940186 
	C907.473694,505.711792 909.948303,506.717590 912.505127,507.435272 
	C914.706665,508.053192 916.907959,508.838959 917.021423,511.383698 
	C917.141907,514.086731 914.788879,514.762573 912.252686,515.409119 
z"/>
<path fill="#000000" opacity="1.000000" stroke="none" 
	d="
M624.465332,201.251709 
	C623.109802,198.683441 624.000854,197.092163 626.020996,196.003204 
	C627.628723,195.136536 629.269775,194.302170 630.968628,193.639481 
	C636.469116,191.493790 640.186768,187.949509 641.190247,181.836868 
	C641.552795,179.628403 642.052673,176.904373 645.119446,176.817001 
	C648.522644,176.720001 648.807617,179.569016 649.356628,181.990723 
	C650.666931,187.770935 653.850464,191.894241 659.598328,193.854019 
	C660.691162,194.226639 661.744080,194.775177 662.736206,195.373840 
	C666.819641,197.837814 667.125305,200.826157 662.949036,202.738037 
	C655.526489,206.136063 650.426758,211.055817 648.169373,219.125671 
	C647.217651,222.527802 643.307678,222.646729 642.560364,219.337631 
	C640.317688,209.406387 633.051147,205.073792 624.465332,201.251709 
z"/>
<path fill="#000000" opacity="1.000000" stroke="none" 
	d="
M775.398987,69.241150 
	C782.431885,71.966240 785.029053,76.851830 783.029114,83.013077 
	C781.492249,87.747795 776.140747,90.387367 770.351074,89.266342 
	C765.556824,88.338036 762.037659,83.112602 762.750244,77.980095 
	C763.567200,72.095757 768.094299,68.824951 775.398987,69.241150 
z"/>
<path fill="#000000" opacity="1.000000" stroke="none" 
	d="
M449.769073,417.482605 
	C439.564789,409.406342 436.061920,397.368225 440.389221,386.153168 
	C444.310181,375.991211 453.511963,370.355713 463.946533,371.725861 
	C473.956299,373.040222 482.576904,382.409424 483.297668,392.932037 
	C483.663391,398.271362 483.383179,403.532013 480.917419,408.500397 
	C475.003204,420.417389 462.948761,424.044220 449.769073,417.482605 
z"/>
<path fill="#000000" opacity="1.000000" stroke="none" 
	d="
M352.207520,395.826355 
	C359.317444,404.489227 361.293945,413.796539 357.346710,424.035309 
	C354.028290,432.642975 347.392883,437.502472 338.424347,438.078918 
	C330.160553,438.610046 323.129547,435.170990 318.445648,428.029053 
	C308.091095,412.240723 315.978455,392.215027 333.797119,389.287476 
	C340.795502,388.137634 346.830994,390.772705 352.207520,395.826355 
z"/>
<path fill="#000000" opacity="1.000000" stroke="none" 
	d="
M798.534302,352.419891 
	C795.323486,362.040497 795.348633,361.795288 784.577393,360.690399 
	C780.627380,360.285217 779.077454,358.896271 778.663513,355.082336 
	C777.447388,343.879028 775.979370,332.703064 774.604675,321.517029 
	C774.506226,320.716217 774.626282,319.819397 773.417847,319.115845 
	C771.516785,320.746521 771.164490,323.264832 770.375061,325.461273 
	C767.001160,334.848633 763.652283,344.247467 760.505005,353.712189 
	C759.566956,356.533508 758.235413,357.971954 755.151611,357.426910 
	C754.017944,357.226501 752.823914,357.393768 751.661255,357.326569 
	C744.171753,356.893799 743.290955,355.652832 742.614197,348.127441 
	C741.247681,332.932861 739.522095,317.770660 737.949707,302.594543 
	C737.539368,298.633301 737.155640,294.669373 736.745117,290.708160 
	C736.474792,288.099518 737.291260,286.399872 740.251648,286.701782 
	C743.386658,287.021515 746.574097,287.197998 749.618042,287.934814 
	C752.598267,288.656158 752.065552,291.576111 752.226624,293.772034 
	C753.003845,304.368286 753.655884,314.973724 754.358765,325.575439 
	C754.412476,326.387054 754.327576,327.267120 755.326355,327.858063 
	C757.702393,327.580170 757.541077,325.320831 758.063904,323.791138 
	C761.397888,314.037872 764.682617,304.265930 767.808167,294.444366 
	C768.862183,291.132202 770.159302,288.984039 774.135193,290.481750 
	C775.167419,290.870636 776.452026,290.718353 777.606812,290.631104 
	C782.638733,290.251068 784.086121,292.846252 784.419250,297.531372 
	C785.135986,307.611481 786.378967,317.655396 787.491943,327.704681 
	C787.651611,329.145630 788.016479,330.664978 789.828003,332.023438 
	C790.753174,329.668488 791.743958,327.508636 792.459534,325.261169 
	C795.232727,316.551971 798.227539,307.894867 800.514343,299.056549 
	C801.781982,294.157501 804.481567,293.048401 808.829468,293.770721 
	C811.272095,294.176483 813.713013,294.591888 817.106506,295.163239 
	C810.894653,314.316620 804.777588,333.177917 798.534302,352.419891 
z"/>
<path fill="#000000" opacity="1.000000" stroke="none" 
	d="
M867.930420,354.226196 
	C871.419128,356.285797 874.672302,357.860504 878.544006,357.649445 
	C881.685913,357.478180 883.960632,356.155243 885.170471,353.227386 
	C886.421936,350.198853 884.893188,347.888794 882.678467,346.280273 
	C878.374939,343.154572 873.710938,340.524200 869.416016,337.387756 
	C858.802002,329.636658 857.895447,313.456421 867.474731,305.126984 
	C876.036865,297.682007 897.284790,299.559814 904.308655,308.345551 
	C905.246948,309.519196 905.804871,310.655304 904.662354,311.875793 
	C902.615356,314.062286 900.497559,316.185120 898.352173,318.276001 
	C896.676331,319.909241 895.298401,318.626953 893.968201,317.647003 
	C890.937439,315.414185 887.681030,313.916321 883.795166,314.202789 
	C880.985718,314.409851 878.441895,315.130219 877.425232,318.099243 
	C876.438049,320.982086 877.587769,323.387726 879.783508,325.211517 
	C881.436035,326.584106 883.279968,327.754517 885.139221,328.843323 
	C888.158752,330.611572 891.077820,332.484314 893.881042,334.606079 
	C902.017029,340.764069 902.972229,349.960907 900.054993,358.926178 
	C897.477295,366.847748 890.008911,371.230408 880.383240,371.425140 
	C872.154663,371.591614 864.519531,370.217255 858.048584,364.637024 
	C854.846924,361.876129 853.497253,359.331512 857.873474,356.473541 
	C858.690002,355.940277 859.379944,355.137634 859.966003,354.340027 
	C862.415833,351.006165 864.951111,351.029724 867.930420,354.226196 
z"/>
<path fill="#000000" opacity="1.000000" stroke="none" 
	d="
M822.568665,296.522827 
	C831.403809,295.283447 839.666992,297.738281 848.087891,298.115448 
	C848.578796,298.137421 849.057190,298.360809 849.549805,298.434448 
	C858.458130,299.765625 858.317749,299.749268 857.396118,308.660187 
	C857.064941,311.862976 855.526428,312.603027 852.801697,312.292694 
	C848.510254,311.803925 844.191040,311.473541 839.939209,310.749512 
	C836.615479,310.183502 835.510132,311.297699 835.289490,314.602051 
	C834.471130,326.856873 834.380127,326.814209 847.063721,327.662170 
	C849.216736,327.806122 852.270630,326.681946 853.057922,329.762573 
	C853.982178,333.379211 852.656250,337.013763 851.618286,340.470612 
	C851.228027,341.770447 849.268555,341.304474 847.963745,341.143005 
	C844.505066,340.714996 841.042786,340.300201 837.599426,339.767181 
	C834.443604,339.278656 832.527405,339.944000 832.255615,343.681976 
	C831.822998,349.632080 830.837219,355.541565 830.389526,361.491119 
	C830.156616,364.585693 828.878784,365.504974 825.935059,365.183136 
	C815.139282,364.002869 814.739624,364.010193 815.724121,354.183197 
	C817.641357,335.045288 820.047791,315.956360 822.568665,296.522827 
z"/>
</svg>